<svg width="795" height="674" viewBox="0 0 795 674" fill="none" xmlns="http://www.w3.org/2000/svg">
<mask id="mask0_174_1792" style="mask-type:alpha" maskUnits="userSpaceOnUse" x="0" y="0" width="795" height="674">
<rect width="795" height="674" fill="white"/>
</mask>
<g mask="url(#mask0_174_1792)">
<path d="M695.52 121.767V183.577H627.103V121.767C627.103 116.415 629.38 111.282 633.435 107.497C637.489 103.712 642.988 101.585 648.722 101.584H673.894C677.178 101.581 680.419 102.278 683.37 103.622C686.321 104.966 688.904 106.92 690.924 109.337C693.907 112.881 695.526 117.26 695.52 121.767Z" fill="url(#paint0_linear_174_1792)"/>
<path style="mix-blend-mode:multiply" d="M695.52 146.128V183.577H627.103V121.767C627.103 116.415 629.38 111.282 633.435 107.497C637.489 103.712 642.988 101.585 648.722 101.584H673.894C677.178 101.581 680.419 102.278 683.37 103.622C686.321 104.966 688.904 106.92 690.924 109.337C689.251 115.652 683.491 122.446 674.84 126.725C665.631 131.275 682.649 139.324 695.52 146.128Z" fill="url(#paint1_linear_174_1792)"/>
<path d="M628.185 118.289L565.124 72.6937L622.31 60.2277L623.255 60.0186L688.35 106.822C692.711 124.522 632.557 135.983 628.185 118.289Z" fill="url(#paint2_linear_174_1792)"/>
<path style="mix-blend-mode:multiply" d="M628.185 118.289L565.124 72.6936L622.31 60.2275L633.513 82.3594C633.317 92.9025 634.125 113.03 647.422 120.926C660.718 128.821 689.148 116.417 688.35 106.822C692.711 124.522 632.557 135.983 628.185 118.289Z" fill="url(#paint3_linear_174_1792)"/>
<path d="M634.486 134.988H558.199V81.7321C558.199 74.7079 560.956 67.9271 565.949 62.6708C570.941 57.4145 577.823 54.0468 585.295 53.204C586.526 53.0682 587.765 53 589.006 53H603.728C607.771 53 611.774 53.7432 615.508 55.1872C619.243 56.6312 622.636 58.7477 625.495 61.4158C628.353 64.0838 630.62 67.2513 632.166 70.7372C633.713 74.2231 634.508 77.9592 634.508 81.7321L634.486 134.988Z" fill="url(#paint4_linear_174_1792)"/>
<path style="mix-blend-mode:screen" d="M609.773 114.683C609.773 118.835 562.03 118.835 562.03 114.683V78.1974C562.03 68.1236 569.435 59.835 578.972 58.6516C579.738 58.5577 580.51 58.51 581.283 58.5088H590.498C601.133 58.5088 609.762 67.3228 609.762 78.1974L609.773 114.683Z" fill="url(#paint5_linear_174_1792)"/>
<path style="mix-blend-mode:multiply" d="M621.113 58.0391C622.004 60.7601 622.457 63.5895 622.457 66.4348C622.457 66.4348 622.408 107.521 621.621 113.285C619.593 128.25 561.205 126.143 558.199 119.696V134.998H634.486V81.7317C634.489 77.0653 633.273 72.4685 630.943 68.3399C628.612 64.2113 625.238 60.6755 621.113 58.0391Z" fill="url(#paint6_linear_174_1792)"/>
<path style="mix-blend-mode:screen" d="M681.77 104.114C688.634 109.174 668.921 117.32 662.057 112.275L642.509 100.182C638.683 97.3508 638.005 71.6689 641.842 74.4998L681.77 104.114Z" fill="url(#paint7_linear_174_1792)"/>
<path d="M542.772 102.757H541.946V136.564H542.772V102.757Z" fill="url(#paint8_linear_174_1792)"/>
<path d="M555.324 99.9209H554.499V134.912H555.324V99.9209Z" fill="url(#paint9_linear_174_1792)"/>
<path d="M647.378 102.757H646.553V136.564H647.378V102.757Z" fill="url(#paint10_linear_174_1792)"/>
<path d="M634.825 99.9209H634V134.912H634.825V99.9209Z" fill="url(#paint11_linear_174_1792)"/>
<path d="M579.431 98.2588H578.606V133.249H579.431V98.2588Z" fill="url(#paint12_linear_174_1792)"/>
<path d="M607.526 98.2588H606.701V133.249H607.526V98.2588Z" fill="url(#paint13_linear_174_1792)"/>
<path d="M664.199 148.546H661.724V109.021C661.724 104.635 636.945 98.5137 596.597 98.5137C556.248 98.5137 531.475 104.635 531.475 109.021V148.546H528.999V109.021C528.999 105.18 535.874 102.023 549.444 99.6359C562.052 97.4222 578.797 96.2031 596.597 96.2031C614.396 96.2031 631.147 97.4222 643.755 99.6359C657.319 102.023 664.199 105.18 664.199 109.021V148.546Z" fill="url(#paint14_linear_174_1792)"/>
<path d="M706.439 673.452C706.439 685.372 477.655 685.372 477.655 673.452V170.596C477.655 116.957 706.439 116.957 706.439 170.596V673.452Z" fill="url(#paint15_linear_174_1792)"/>
<path style="mix-blend-mode:screen" d="M578.152 659.114C578.152 670.392 486.918 670.392 486.918 659.114V183.251C486.918 132.494 578.152 132.494 578.152 183.251V659.114Z" fill="url(#paint16_linear_174_1792)"/>
<path style="mix-blend-mode:multiply" d="M611.412 130.888V682.271C661.467 681.669 706.422 678.731 706.422 673.447V170.596C706.439 146.817 661.483 133.591 611.412 130.888Z" fill="url(#paint17_linear_174_1792)"/>
<g style="mix-blend-mode:multiply">
<path d="M706.756 230.473H705.958C705.958 222.098 693.733 215.023 670.594 210.019C649.914 205.551 622.064 203.088 592.181 203.088C562.298 203.088 534.448 205.551 513.768 210.019C490.629 215.023 478.404 222.098 478.404 230.473H477.573C477.573 211.126 536.984 202.317 592.181 202.317C647.378 202.317 706.756 211.121 706.756 230.473Z" fill="url(#paint18_linear_174_1792)"/>
</g>
<g style="mix-blend-mode:multiply">
<path d="M706.756 309.523H705.958C705.958 301.143 693.733 294.073 670.594 289.069C649.914 284.596 622.064 282.138 592.181 282.138C562.298 282.138 534.448 284.596 513.768 289.069C490.629 294.073 478.404 301.143 478.404 309.523H477.573C477.573 290.176 536.984 281.362 592.181 281.362C647.378 281.362 706.756 290.181 706.756 309.523Z" fill="url(#paint19_linear_174_1792)"/>
</g>
<g style="mix-blend-mode:multiply">
<path d="M706.756 388.573H705.958C705.958 383.258 693.388 378.556 670.626 375.312C649.936 372.389 622.075 370.777 592.181 370.777C535.64 370.777 478.404 376.898 478.404 388.553H477.573C477.573 375.801 536.984 370.007 592.181 370.007C647.378 370.007 706.756 375.832 706.756 388.573Z" fill="url(#paint20_linear_174_1792)"/>
</g>
<g style="mix-blend-mode:multiply">
<path d="M706.756 467.624H705.958C705.958 466.879 703.411 464.303 670.659 462.401C649.958 461.192 622.086 460.529 592.181 460.529C562.276 460.529 534.399 461.192 513.697 462.401C480.945 464.303 478.404 466.879 478.404 467.624H477.573C477.573 466.66 477.573 463.727 513.643 461.631C534.361 460.422 562.249 459.759 592.176 459.759C622.102 459.759 649.99 460.422 670.708 461.631C706.756 463.727 706.756 466.665 706.756 467.624Z" fill="url(#paint21_linear_174_1792)"/>
</g>
<g style="mix-blend-mode:multiply">
<path d="M592.154 550.26C562.233 550.26 534.35 549.975 513.637 549.459C477.568 548.562 477.568 547.378 477.568 546.669H478.399C478.398 546.616 478.379 546.564 478.344 546.521C480.306 548.24 528.18 549.49 592.176 549.49C656.171 549.49 704.04 548.24 706.007 546.521C705.972 546.564 705.953 546.616 705.953 546.669H706.778C706.778 547.378 706.778 548.562 670.708 549.459C649.958 549.975 622.069 550.26 592.154 550.26Z" fill="url(#paint22_linear_174_1792)"/>
</g>
<g style="mix-blend-mode:multiply">
<path d="M592.153 631.448C562.232 631.448 534.344 630.974 513.626 630.112C477.556 628.612 477.556 626.587 477.556 625.72H478.387C478.524 626.23 481.524 628.025 514.221 629.362C534.863 630.209 562.544 630.678 592.164 630.678C621.785 630.678 649.46 630.209 670.107 629.362C702.799 628.025 705.805 626.23 705.941 625.715H706.766C706.766 626.582 706.766 628.607 670.697 630.107C649.963 630.974 622.074 631.448 592.153 631.448Z" fill="url(#paint23_linear_174_1792)"/>
</g>
<g style="mix-blend-mode:multiply" opacity="0.19">
<path d="M544.509 690.942H541.919V134.09L544.509 133.621V690.942Z" fill="url(#paint24_linear_174_1792)"/>
<path d="M569.982 690.942H567.397V131.193L569.769 130.989L569.982 690.942Z" fill="url(#paint25_linear_174_1792)"/>
<path d="M569.839 140.007H542.246V142.761H569.839V140.007Z" fill="url(#paint26_linear_174_1792)"/>
<path d="M569.839 182.562H542.246V185.317H569.839V182.562Z" fill="url(#paint27_linear_174_1792)"/>
<path d="M569.839 225.112H542.246V227.867H569.839V225.112Z" fill="url(#paint28_linear_174_1792)"/>
<path d="M569.839 267.667H542.246V270.421H569.839V267.667Z" fill="url(#paint29_linear_174_1792)"/>
<path d="M569.839 310.217H542.246V312.971H569.839V310.217Z" fill="url(#paint30_linear_174_1792)"/>
<path d="M569.839 352.771H542.246V355.526H569.839V352.771Z" fill="url(#paint31_linear_174_1792)"/>
<path d="M569.839 395.322H542.246V398.077H569.839V395.322Z" fill="url(#paint32_linear_174_1792)"/>
<path d="M569.839 437.877H542.246V440.631H569.839V437.877Z" fill="url(#paint33_linear_174_1792)"/>
<path d="M569.839 480.427H542.246V483.181H569.839V480.427Z" fill="url(#paint34_linear_174_1792)"/>
<path d="M569.839 522.981H542.246V525.736H569.839V522.981Z" fill="url(#paint35_linear_174_1792)"/>
<path d="M569.839 565.531H542.246V568.286H569.839V565.531Z" fill="url(#paint36_linear_174_1792)"/>
<path d="M569.839 608.087H542.246V610.841H569.839V608.087Z" fill="url(#paint37_linear_174_1792)"/>
<path d="M569.839 650.642H542.246V653.396H569.839V650.642Z" fill="url(#paint38_linear_174_1792)"/>
<path d="M530.65 136.116V690.942H533.24V135.575L530.65 136.116Z" fill="url(#paint39_linear_174_1792)"/>
<path d="M550.778 149.336C540.487 149.336 529.546 146.673 529.546 141.736C529.546 136.799 540.476 134.131 550.778 134.131C561.079 134.131 572.009 136.799 572.009 141.736C572.009 146.673 561.068 149.336 550.778 149.336ZM550.778 136.447C539.159 136.447 532.027 139.507 532.027 141.736C532.027 143.965 539.132 147.025 550.778 147.025C562.424 147.025 569.528 143.965 569.528 141.736C569.528 139.507 562.396 136.447 550.778 136.447Z" fill="url(#paint40_linear_174_1792)"/>
<path d="M550.778 214.86C540.487 214.86 529.546 212.198 529.546 207.26C529.546 202.323 540.476 199.66 550.778 199.66C561.079 199.66 572.009 202.323 572.009 207.26C572.009 212.198 561.068 214.86 550.778 214.86ZM550.778 201.971C539.159 201.971 532.027 205.031 532.027 207.26C532.027 209.489 539.132 212.55 550.778 212.55C562.424 212.55 569.528 209.489 569.528 207.26C569.528 205.031 562.396 201.971 550.778 201.971Z" fill="url(#paint41_linear_174_1792)"/>
<path d="M550.778 280.383C540.487 280.383 529.546 277.72 529.546 272.783C529.546 267.845 540.476 265.183 550.778 265.183C561.079 265.183 572.009 267.845 572.009 272.783C572.009 277.72 561.068 280.383 550.778 280.383ZM550.778 267.493C539.159 267.493 532.027 270.554 532.027 272.783C532.027 275.012 539.132 278.072 550.778 278.072C562.424 278.072 569.528 275.012 569.528 272.783C569.528 270.554 562.396 267.493 550.778 267.493Z" fill="url(#paint42_linear_174_1792)"/>
<path d="M550.778 344.249C540.553 344.249 529.546 342.382 529.546 338.286C529.546 334.19 540.553 332.323 550.778 332.323C561.003 332.323 572.009 334.19 572.009 338.286C572.009 342.382 561.003 344.249 550.778 344.249ZM550.778 334.639C538.405 334.639 532.027 337.189 532.027 338.286C532.027 339.383 538.405 341.938 550.778 341.938C563.151 341.938 569.528 339.388 569.528 338.286C569.528 337.184 563.151 334.659 550.778 334.659V334.639Z" fill="url(#paint43_linear_174_1792)"/>
<path d="M550.778 409.619C543.433 409.619 529.546 408.405 529.546 403.83C529.546 399.255 543.433 398.046 550.778 398.046C558.123 398.046 572.009 399.255 572.009 403.83C572.009 408.405 558.123 409.619 550.778 409.619ZM550.778 400.362C538.596 400.362 532.027 402.825 532.027 403.83C532.027 404.835 538.585 407.304 550.778 407.304C562.97 407.304 569.528 404.84 569.528 403.83C569.528 402.82 562.959 400.357 550.778 400.357V400.362Z" fill="url(#paint44_linear_174_1792)"/>
<path d="M550.778 473.296C545.99 473.334 541.206 473.059 536.459 472.475C531.541 471.791 529.546 470.894 529.546 469.374C529.546 467.854 531.552 466.951 536.459 466.267C545.969 465.173 555.587 465.173 565.096 466.267C570.015 466.951 572.009 467.849 572.009 469.374C572.009 470.899 570.004 471.791 565.096 472.475C560.35 473.059 555.565 473.334 550.778 473.296ZM532.77 469.374C534.989 470.083 541.012 470.986 550.778 470.986C560.544 470.986 566.566 470.083 568.812 469.374C566.594 468.66 560.571 467.757 550.778 467.757C540.984 467.757 534.989 468.644 532.77 469.358V469.374Z" fill="url(#paint45_linear_174_1792)"/>
<path d="M550.778 539.87C548.592 539.87 529.546 539.732 529.546 534.881C529.546 530.03 548.603 529.913 550.778 529.913C552.953 529.913 572.009 530.056 572.009 534.907C572.009 539.757 552.936 539.87 550.778 539.87ZM532.098 534.881C533.136 535.901 539.826 537.559 550.778 537.559C561.73 537.559 568.419 535.901 569.457 534.881C568.419 533.861 561.73 532.203 550.778 532.203C539.826 532.203 533.136 533.856 532.098 534.881Z" fill="url(#paint46_linear_174_1792)"/>
<path d="M550.778 604.124C548.592 604.124 529.546 603.986 529.546 599.13C529.546 594.274 548.603 594.142 550.778 594.142C552.953 594.142 572.009 594.279 572.009 599.13C572.009 603.981 552.936 604.124 550.778 604.124ZM532.098 599.13C533.136 600.15 539.826 601.808 550.778 601.808C561.73 601.808 568.419 600.155 569.457 599.13C568.419 598.11 561.73 596.457 550.778 596.457C539.826 596.457 533.136 598.11 532.098 599.13Z" fill="url(#paint47_linear_174_1792)"/>
<path d="M550.778 673.003C548.592 673.003 529.546 672.86 529.546 668.009C529.546 663.158 548.603 663.021 550.778 663.021C552.953 663.021 572.009 663.158 572.009 668.009C572.009 672.86 552.936 673.003 550.778 673.003ZM532.098 668.009C533.136 669.029 539.826 670.687 550.778 670.687C561.73 670.687 568.419 669.029 569.457 668.009C568.419 666.989 561.73 665.331 550.778 665.331C539.826 665.331 533.136 666.989 532.098 668.009Z" fill="url(#paint48_linear_174_1792)"/>
<path d="M557.106 131.932V690.941H559.696V131.8L557.106 131.932Z" fill="url(#paint49_linear_174_1792)"/>
</g>
<path d="M524.78 102.834H522.19V690.948H524.78V102.834Z" fill="url(#paint50_linear_174_1792)"/>
<path d="M550.258 98.6973H547.668V690.948H550.258V98.6973Z" fill="url(#paint51_linear_174_1792)"/>
<path d="M550.111 140.008H522.518V142.762H550.111V140.008Z" fill="url(#paint52_linear_174_1792)"/>
<path d="M550.111 182.562H522.518V185.317H550.111V182.562Z" fill="url(#paint53_linear_174_1792)"/>
<path d="M550.111 225.112H522.518V227.867H550.111V225.112Z" fill="url(#paint54_linear_174_1792)"/>
<path d="M550.111 267.667H522.518V270.421H550.111V267.667Z" fill="url(#paint55_linear_174_1792)"/>
<path d="M550.111 310.217H522.518V312.971H550.111V310.217Z" fill="url(#paint56_linear_174_1792)"/>
<path d="M550.111 352.772H522.518V355.527H550.111V352.772Z" fill="url(#paint57_linear_174_1792)"/>
<path d="M550.111 395.322H522.518V398.077H550.111V395.322Z" fill="url(#paint58_linear_174_1792)"/>
<path d="M550.111 437.877H522.518V440.631H550.111V437.877Z" fill="url(#paint59_linear_174_1792)"/>
<path d="M550.111 480.427H522.518V483.181H550.111V480.427Z" fill="url(#paint60_linear_174_1792)"/>
<path d="M550.111 522.981H522.518V525.736H550.111V522.981Z" fill="url(#paint61_linear_174_1792)"/>
<path d="M550.111 565.531H522.518V568.286H550.111V565.531Z" fill="url(#paint62_linear_174_1792)"/>
<path d="M550.111 608.087H522.518V610.841H550.111V608.087Z" fill="url(#paint63_linear_174_1792)"/>
<path d="M550.111 650.642H522.518V653.396H550.111V650.642Z" fill="url(#paint64_linear_174_1792)"/>
<path d="M526.671 101.568C517.992 101.568 510.921 106.256 510.921 114.356V690.942H513.511V114.356C513.511 107.531 519.359 103.884 526.671 103.884H540.645C541.192 103.884 541.192 101.568 540.645 101.568H526.671Z" fill="url(#paint65_linear_174_1792)"/>
<path d="M531.076 149.337C520.785 149.337 509.844 146.674 509.844 141.737C509.844 136.799 520.774 134.132 531.076 134.132C541.378 134.132 552.28 136.799 552.28 141.752C552.28 146.705 541.339 149.337 531.076 149.337ZM531.076 136.448C519.457 136.448 512.325 139.508 512.325 141.737C512.325 143.966 519.457 147.026 531.076 147.026C542.695 147.026 549.827 143.966 549.827 141.737C549.827 139.508 542.667 136.448 531.076 136.448Z" fill="url(#paint66_linear_174_1792)"/>
<path d="M531.076 214.86C520.785 214.86 509.844 212.198 509.844 207.26C509.844 202.323 520.774 199.66 531.076 199.66C541.378 199.66 552.308 202.323 552.308 207.26C552.308 212.198 541.339 214.86 531.076 214.86ZM531.076 201.971C519.457 201.971 512.325 205.031 512.325 207.26C512.325 209.489 519.43 212.55 531.076 212.55C542.722 212.55 549.827 209.489 549.827 207.26C549.827 205.031 542.667 201.971 531.076 201.971Z" fill="url(#paint67_linear_174_1792)"/>
<path d="M531.076 280.383C520.785 280.383 509.844 277.721 509.844 272.783C509.844 267.846 520.758 265.188 531.076 265.188C541.394 265.188 552.308 267.851 552.308 272.788C552.308 277.726 541.339 280.383 531.076 280.383ZM531.076 267.494C519.457 267.494 512.325 270.554 512.325 272.783C512.325 275.012 519.457 278.073 531.076 278.073C542.695 278.073 549.827 275.012 549.827 272.783C549.827 270.554 542.667 267.494 531.076 267.494Z" fill="url(#paint68_linear_174_1792)"/>
<path d="M531.076 344.249C520.851 344.249 509.844 342.382 509.844 338.286C509.844 334.19 520.851 332.323 531.076 332.323C541.301 332.323 552.308 334.19 552.308 338.286C552.308 342.382 541.274 344.249 531.076 344.249ZM531.076 334.639C518.703 334.639 512.325 337.189 512.325 338.286C512.325 339.383 518.703 341.938 531.076 341.938C543.449 341.938 549.827 339.388 549.827 338.286C549.827 337.184 543.422 334.659 531.076 334.659V334.639Z" fill="url(#paint69_linear_174_1792)"/>
<path d="M531.076 409.619C523.731 409.619 509.844 408.405 509.844 403.83C509.844 399.255 523.731 398.046 531.076 398.046C538.421 398.046 552.308 399.255 552.308 403.83C552.308 408.405 538.394 409.619 531.076 409.619ZM531.076 400.357C518.894 400.357 512.325 402.82 512.325 403.825C512.325 404.83 518.883 407.299 531.076 407.299C543.269 407.299 549.827 404.835 549.827 403.825C549.827 402.815 543.23 400.357 531.076 400.357Z" fill="url(#paint70_linear_174_1792)"/>
<path d="M531.076 473.296C526.289 473.334 521.504 473.059 516.758 472.475C511.839 471.791 509.844 470.894 509.844 469.374C509.844 467.854 511.85 466.951 516.758 466.267C526.267 465.173 535.885 465.173 545.394 466.267C550.313 466.951 552.308 467.849 552.308 469.374C552.308 470.899 550.302 471.791 545.394 472.475C540.648 473.059 535.863 473.334 531.076 473.296ZM513.041 469.374C515.26 470.083 521.283 470.986 531.076 470.986C540.869 470.986 546.865 470.083 549.083 469.374C546.865 468.66 540.842 467.757 531.076 467.757C521.31 467.757 515.26 468.644 513.041 469.358V469.374Z" fill="url(#paint71_linear_174_1792)"/>
<path d="M531.076 539.871C528.89 539.871 509.844 539.733 509.844 534.882C509.844 530.031 528.89 529.914 531.076 529.914C533.262 529.914 552.308 530.057 552.308 534.908C552.308 539.758 533.224 539.871 531.076 539.871ZM512.396 534.882C513.435 535.902 520.124 537.56 531.076 537.56C542.028 537.56 548.717 535.902 549.756 534.882C548.717 533.862 542.028 532.204 531.076 532.204C520.124 532.204 513.407 533.857 512.369 534.882H512.396Z" fill="url(#paint72_linear_174_1792)"/>
<path d="M531.076 604.124C528.89 604.124 509.844 603.986 509.844 599.13C509.844 594.274 528.901 594.142 531.076 594.142C533.251 594.142 552.308 594.279 552.308 599.13C552.308 603.981 533.224 604.124 531.076 604.124ZM512.396 599.13C513.435 600.15 520.124 601.808 531.076 601.808C542.028 601.808 548.717 600.155 549.756 599.13C548.717 598.11 542.028 596.457 531.076 596.457C520.124 596.457 513.407 598.11 512.369 599.13H512.396Z" fill="url(#paint73_linear_174_1792)"/>
<path d="M531.076 673.003C528.89 673.003 509.844 672.86 509.844 668.009C509.844 663.158 528.89 663.041 531.076 663.041C533.262 663.041 552.308 663.179 552.308 668.029C552.308 672.88 533.224 673.003 531.076 673.003ZM512.396 668.009C513.435 669.029 520.124 670.687 531.076 670.687C542.028 670.687 548.717 669.029 549.756 668.009C548.717 666.989 542.028 665.331 531.076 665.331C520.124 665.331 513.407 666.989 512.369 668.009H512.396Z" fill="url(#paint74_linear_174_1792)"/>
<path d="M553.035 97.626C548.858 97.6543 544.864 99.2275 541.929 102.001C538.994 104.774 537.357 108.52 537.377 112.418V690.942H539.968V112.403C539.968 105.583 545.722 99.9417 553.035 99.9417H564.959C565.506 99.9417 565.506 97.626 564.959 97.626H553.035Z" fill="url(#paint75_linear_174_1792)"/>
<path d="M853.799 623.598H415.086V607.199H858.756C860.6 607.197 862.44 607.368 864.248 607.709C876.818 610.086 886.327 615.784 886.327 628.24V667.632H864.63V633.723C864.633 632.394 864.354 631.078 863.811 629.849C863.267 628.621 862.47 627.505 861.464 626.564C860.458 625.624 859.263 624.878 857.948 624.369C856.632 623.86 855.223 623.598 853.799 623.598Z" fill="url(#paint76_linear_174_1792)"/>
<path style="mix-blend-mode:screen" d="M863.22 608.903C875.823 611.274 885.305 616.977 885.305 629.433V654.788C885.305 655.829 884.862 656.826 884.074 657.562C883.286 658.298 882.217 658.711 881.102 658.711H880.752C879.638 658.711 878.569 658.298 877.781 657.562C876.992 656.826 876.55 655.829 876.55 654.788V630.601C876.55 619.456 869.401 617.956 858.378 617.956H787.879C786.566 617.956 785.307 617.47 784.378 616.603C783.449 615.736 782.928 614.561 782.928 613.335V613.009C782.929 611.784 783.452 610.61 784.38 609.744C785.308 608.879 786.567 608.393 787.879 608.393H857.728C859.572 608.39 861.413 608.561 863.22 608.903Z" fill="url(#paint77_linear_174_1792)"/>
<path style="mix-blend-mode:multiply" d="M776.681 607.199C778.867 607.199 778.867 622.471 776.681 622.471H862.69C868.669 622.471 873.522 627.479 873.522 632.483V655.977C873.522 661.807 886.327 660.496 886.327 660.496V667.637H864.63V633.728C864.63 631.047 863.489 628.475 861.458 626.579C859.427 624.683 856.672 623.618 853.799 623.618H415.086V607.22L776.681 607.199Z" fill="url(#paint78_linear_174_1792)"/>
<path d="M899.322 654.528H413.577V637.502H904.459C906.373 637.495 908.282 637.666 910.159 638.012C923.243 640.481 933.113 646.398 933.113 659.333V678.078H910.569V665.01C910.565 662.229 909.378 659.563 907.269 657.597C905.161 655.632 902.302 654.528 899.322 654.528Z" fill="url(#paint79_linear_174_1792)"/>
<path style="mix-blend-mode:screen" d="M909.105 639.267C922.183 641.736 932.058 647.652 932.058 660.588V664.775C932.058 665.858 931.598 666.895 930.778 667.661C929.958 668.426 928.846 668.856 927.686 668.856H927.293C926.133 668.856 925.021 668.426 924.201 667.661C923.381 666.895 922.921 665.858 922.921 664.775V661.797C922.921 650.223 915.499 648.667 904.055 648.667H787.824C786.462 648.667 785.155 648.162 784.192 647.263C783.228 646.364 782.687 645.144 782.687 643.873V643.536C782.687 642.906 782.819 642.282 783.077 641.7C783.335 641.117 783.713 640.588 784.19 640.142C784.667 639.697 785.234 639.343 785.857 639.102C786.481 638.861 787.149 638.736 787.824 638.736H903.405C905.319 638.736 907.229 638.914 909.105 639.267Z" fill="url(#paint80_linear_174_1792)"/>
<path style="mix-blend-mode:multiply" d="M776.195 637.502C778.446 637.502 778.446 653.355 776.195 653.355H908.553C914.761 653.355 919.794 658.558 919.794 663.755V666.01C919.794 672.064 933.096 670.702 933.096 670.702V678.093H910.569V665.025C910.569 662.241 909.384 659.571 907.275 657.603C905.166 655.634 902.305 654.528 899.322 654.528H413.577V637.502H776.195Z" fill="url(#paint81_linear_174_1792)"/>
<path d="M328.476 173.055H289.969V206.75H328.476V173.055Z" fill="url(#paint82_linear_174_1792)"/>
<path style="mix-blend-mode:screen" d="M315.769 175.391H292.838V188.79H315.769V175.391Z" fill="url(#paint83_linear_174_1792)"/>
<path style="mix-blend-mode:multiply" d="M322.311 173.055V193.182C322.31 194.887 321.583 196.522 320.291 197.727C318.998 198.932 317.246 199.609 315.42 199.609H289.969V206.75H328.476V173.055H322.311Z" fill="url(#paint84_linear_174_1792)"/>
<path d="M285.662 203.817H278.924V147.664C278.924 147.332 285.662 147.332 285.662 147.664V203.817Z" fill="url(#paint85_linear_174_1792)"/>
<path style="mix-blend-mode:multiply" d="M280.498 147.449C281.41 147.49 282.071 147.561 282.071 147.663V203.817H285.662V147.663C285.662 147.439 282.487 147.362 280.498 147.449Z" fill="url(#paint86_linear_174_1792)"/>
<path d="M334.252 192.136C291.19 188.024 247.792 188.024 204.73 192.136L204.648 191.432C247.757 187.316 291.203 187.316 334.312 191.432L334.252 192.136Z" fill="url(#paint87_linear_174_1792)"/>
<path d="M260.55 176.283H259.791V204.929H260.55V176.283Z" fill="url(#paint88_linear_174_1792)"/>
<path d="M289.914 176.62H289.154V204.929H289.914V176.62Z" fill="url(#paint89_linear_174_1792)"/>
<path d="M231.192 176.473H230.432V204.139H231.192V176.473Z" fill="url(#paint90_linear_174_1792)"/>
<path d="M319.272 177.457H318.513V204.134H319.272V177.457Z" fill="url(#paint91_linear_174_1792)"/>
<path d="M335.427 206.347H333.148V180.517C290.837 176.064 248.123 176.064 205.812 180.517V206.372H203.533V179.543C203.532 179.282 203.635 179.03 203.82 178.836C204.006 178.641 204.261 178.517 204.539 178.487C247.681 173.876 291.246 173.876 334.388 178.487C334.666 178.517 334.922 178.641 335.109 178.835C335.295 179.03 335.399 179.282 335.399 179.543L335.427 206.347Z" fill="url(#paint92_linear_174_1792)"/>
<path style="mix-blend-mode:multiply" d="M433.552 275.104V659.981C443.007 659.288 448.253 658.523 448.253 657.717V277.369C448.253 276.568 443.007 275.798 433.552 275.104Z" fill="url(#paint93_linear_174_1792)"/>
<path d="M269.682 202.898C234.132 202.898 205.047 205.331 204.703 205.546L91.9314 276.919C89.3409 278.562 168.89 279.924 269.682 279.924C370.475 279.924 450.029 278.562 447.428 276.919L334.657 205.51C334.334 205.331 305.227 202.898 269.682 202.898Z" fill="url(#paint94_linear_174_1792)"/>
<path style="mix-blend-mode:multiply" d="M269.677 279.949C168.89 279.949 89.33 278.577 91.9368 276.94L102.659 270.151C134.449 270.661 176.06 273.405 224.082 273.803C282.476 274.313 311.282 273.624 308.697 271.987C308.697 271.987 298.756 229.769 289.433 203.128C315.408 203.745 334.378 205.362 334.651 205.535L447.428 276.919C450.018 278.577 370.469 279.949 269.677 279.949Z" fill="url(#paint95_linear_174_1792)"/>
<path style="mix-blend-mode:multiply" d="M433.798 278.149C443.192 277.777 448.1 277.369 447.428 276.941L334.656 205.531C334.498 205.434 328.098 204.848 317.671 204.256L433.798 278.149Z" fill="url(#paint96_linear_174_1792)"/>
<path style="mix-blend-mode:screen" d="M260.556 210.101C240.718 210.101 210.66 211.457 210.468 211.58L124.946 264.408C123.503 265.326 178.006 263.163 234.247 263.163C237.602 263.148 263.288 210.101 260.556 210.101Z" fill="url(#paint97_linear_174_1792)"/>
<path d="M269.682 271.671C171.06 271.671 91.106 274.221 91.106 277.368V657.711C91.106 660.858 171.06 663.408 269.682 663.408C368.305 663.408 448.253 660.858 448.253 657.711V277.368C448.253 274.226 368.305 271.671 269.682 271.671Z" fill="url(#paint98_linear_174_1792)"/>
<path style="mix-blend-mode:multiply" d="M305.369 271.789C305.369 271.789 305.457 409.507 305.457 435.72C305.457 461.932 225.41 499.784 126.787 499.784C114.562 499.784 102.626 499.749 91.0896 499.672V657.712C91.0896 660.859 171.043 663.409 269.666 663.409C368.288 663.409 448.237 660.859 448.237 657.712V277.369C448.253 274.615 386.897 272.33 305.369 271.789Z" fill="url(#paint99_linear_174_1792)"/>
<path style="mix-blend-mode:screen" d="M115.945 521.243C140.854 522.263 182.504 522.987 231.716 523.242V271.819C182.504 272.074 140.854 272.814 115.945 273.814V521.243Z" fill="url(#paint100_linear_174_1792)"/>
<g style="mix-blend-mode:multiply">
<path d="M269.365 371.839C221.666 371.839 176.918 371.538 143.363 370.982C91.3629 370.13 91.0405 369.15 90.8984 368.676C90.8641 368.582 90.8661 368.479 90.904 368.386C90.9419 368.293 91.0133 368.215 91.106 368.166C91.106 368.166 91.5596 368.334 91.5323 368.319C93.844 369.661 162.496 371.109 269.376 371.109C376.256 371.109 444.914 369.661 447.226 368.319C447.192 368.345 447.164 368.378 447.146 368.415C447.127 368.452 447.117 368.492 447.116 368.533C447.115 368.575 447.124 368.617 447.143 368.655C447.162 368.693 447.19 368.726 447.226 368.753L447.652 368.166C447.745 368.215 447.816 368.293 447.854 368.386C447.892 368.479 447.894 368.582 447.86 368.676C447.707 369.15 447.384 370.13 395.395 370.982C361.818 371.538 317.064 371.839 269.365 371.839Z" fill="url(#paint101_linear_174_1792)"/>
</g>
<g style="mix-blend-mode:multiply">
<path d="M269.371 474.689C221.677 474.689 176.929 474.388 143.368 473.832C91.3738 472.98 91.0514 472.001 90.9038 471.532C90.8721 471.437 90.876 471.334 90.9147 471.242C90.9534 471.149 91.0248 471.071 91.117 471.021C91.117 471.021 91.5651 471.195 91.5433 471.175C93.855 472.516 162.507 473.965 269.382 473.965C376.256 473.965 444.908 472.516 447.226 471.175C447.193 471.201 447.166 471.234 447.147 471.271C447.128 471.308 447.118 471.348 447.116 471.389C447.115 471.431 447.124 471.472 447.143 471.51C447.162 471.549 447.19 471.582 447.226 471.608L447.652 471.021C447.744 471.071 447.815 471.149 447.853 471.242C447.89 471.335 447.893 471.437 447.86 471.532C447.707 472.001 447.384 472.98 395.395 473.832C361.818 474.388 317.07 474.689 269.371 474.689Z" fill="url(#paint102_linear_174_1792)"/>
</g>
<g style="mix-blend-mode:multiply">
<path d="M269.382 572.397C221.688 572.397 176.94 572.096 143.385 571.54C91.3901 570.688 91.0677 569.709 90.9201 569.24C90.8858 569.145 90.8878 569.043 90.9257 568.95C90.9636 568.857 91.035 568.779 91.1278 568.729C91.1278 568.729 91.5814 568.903 91.554 568.888C93.8658 570.224 162.518 571.673 269.387 571.673C376.256 571.673 444.903 570.224 447.22 568.888C447.186 568.913 447.158 568.946 447.139 568.983C447.12 569.02 447.11 569.061 447.11 569.102C447.11 569.143 447.12 569.184 447.139 569.221C447.158 569.258 447.186 569.29 447.22 569.316L447.646 568.729C447.738 568.779 447.809 568.857 447.847 568.95C447.885 569.043 447.887 569.145 447.854 569.24C447.701 569.709 447.379 570.688 395.389 571.54C361.818 572.096 317.075 572.397 269.382 572.397Z" fill="url(#paint103_linear_174_1792)"/>
</g>
<path d="M328.793 193.055C328.241 192.573 327.52 192.296 326.765 192.274C324.513 192.274 322.694 194.825 322.694 197.957C322.694 201.088 324.224 202.69 326.765 204.332C356.582 223.567 447.412 276.981 447.412 276.981H466.332L328.793 193.055Z" fill="url(#paint104_linear_174_1792)"/>
<path style="mix-blend-mode:multiply" d="M451.833 274.023C451.833 274.023 361.015 220.609 331.197 201.374C328.656 199.732 327.126 198.14 327.126 194.998C327.122 194.117 327.275 193.241 327.579 192.407C327.317 192.325 327.042 192.28 326.765 192.274C324.513 192.274 322.694 194.825 322.694 197.957C322.694 201.088 324.224 202.69 326.765 204.332C356.582 223.567 447.412 276.981 447.412 276.981H466.332L461.484 274.023H451.833Z" fill="url(#paint105_linear_174_1792)"/>
<path d="M363.659 214.722L356.812 223.265C356.694 223.411 356.547 223.534 356.379 223.627C356.211 223.719 356.025 223.78 355.832 223.806C355.638 223.831 355.441 223.821 355.252 223.776C355.063 223.73 354.885 223.65 354.729 223.541C354.573 223.432 354.441 223.296 354.341 223.14C354.242 222.983 354.176 222.81 354.148 222.63C354.12 222.45 354.13 222.266 354.179 222.09C354.227 221.914 354.312 221.748 354.429 221.603L361.282 213.059C361.398 212.913 361.544 212.79 361.712 212.697C361.879 212.604 362.065 212.542 362.258 212.516C362.451 212.49 362.647 212.5 362.836 212.545C363.025 212.59 363.203 212.669 363.359 212.778C363.515 212.888 363.647 213.024 363.747 213.181C363.847 213.338 363.913 213.511 363.941 213.692C363.969 213.872 363.958 214.056 363.91 214.233C363.862 214.41 363.776 214.576 363.659 214.722Z" fill="url(#paint106_linear_174_1792)"/>
<path d="M413.38 244.444L406.511 253.079C406.394 253.225 406.248 253.348 406.081 253.441C405.913 253.535 405.728 253.596 405.535 253.622C405.342 253.648 405.145 253.638 404.957 253.593C404.768 253.548 404.59 253.469 404.434 253.36C404.278 253.251 404.146 253.114 404.046 252.957C403.946 252.8 403.88 252.627 403.852 252.446C403.824 252.266 403.835 252.082 403.883 251.905C403.931 251.728 404.016 251.562 404.134 251.416L410.998 242.781C411.235 242.487 411.587 242.292 411.977 242.24C412.367 242.187 412.764 242.281 413.08 242.5C413.395 242.722 413.603 243.05 413.66 243.414C413.716 243.778 413.616 244.148 413.38 244.444Z" fill="url(#paint107_linear_174_1792)"/>
<path d="M466.332 276.981H447.412V651.53H466.332V276.981Z" fill="url(#paint108_linear_174_1792)"/>
<path style="mix-blend-mode:multiply" d="M458.134 276.981H447.412V651.53H458.134V276.981Z" fill="url(#paint109_linear_174_1792)"/>
<path d="M469.037 359.107H447.368C447.172 359.107 446.979 359.071 446.799 359.001C446.618 358.931 446.455 358.829 446.317 358.7C446.178 358.572 446.069 358.419 445.994 358.25C445.92 358.082 445.881 357.902 445.881 357.719C445.881 357.351 446.038 356.999 446.317 356.738C446.595 356.478 446.973 356.332 447.368 356.332H469.037C469.232 356.331 469.426 356.367 469.607 356.436C469.788 356.506 469.953 356.608 470.091 356.737C470.23 356.865 470.34 357.019 470.415 357.187C470.49 357.356 470.529 357.537 470.529 357.719C470.529 357.902 470.49 358.083 470.415 358.252C470.34 358.42 470.23 358.573 470.091 358.702C469.953 358.831 469.788 358.933 469.607 359.003C469.426 359.072 469.232 359.107 469.037 359.107Z" fill="url(#paint110_linear_174_1792)"/>
<path d="M469.113 439.631H447.461C447.066 439.631 446.688 439.485 446.409 439.225C446.131 438.965 445.974 438.612 445.974 438.244C445.974 437.876 446.131 437.523 446.409 437.263C446.688 437.003 447.066 436.856 447.461 436.856H469.13C469.325 436.856 469.518 436.892 469.698 436.962C469.879 437.032 470.043 437.134 470.181 437.263C470.319 437.392 470.428 437.545 470.503 437.713C470.578 437.881 470.616 438.062 470.616 438.244C470.616 438.427 470.577 438.609 470.501 438.778C470.426 438.948 470.315 439.101 470.175 439.23C470.035 439.359 469.869 439.461 469.687 439.53C469.505 439.599 469.31 439.633 469.113 439.631Z" fill="url(#paint111_linear_174_1792)"/>
<path d="M469.113 520.187H447.46C447.265 520.188 447.071 520.152 446.89 520.083C446.709 520.013 446.544 519.911 446.406 519.782C446.267 519.653 446.157 519.5 446.082 519.332C446.007 519.163 445.969 518.982 445.969 518.8C445.969 518.617 446.007 518.436 446.082 518.267C446.157 518.099 446.267 517.946 446.406 517.817C446.544 517.688 446.709 517.586 446.89 517.516C447.071 517.447 447.265 517.411 447.46 517.412H469.129C469.325 517.412 469.518 517.448 469.698 517.518C469.879 517.587 470.042 517.69 470.181 517.818C470.319 517.947 470.428 518.1 470.503 518.269C470.577 518.437 470.616 518.617 470.616 518.8C470.616 518.983 470.577 519.165 470.501 519.334C470.425 519.503 470.315 519.657 470.175 519.786C470.035 519.915 469.869 520.017 469.687 520.086C469.505 520.155 469.31 520.189 469.113 520.187Z" fill="url(#paint112_linear_174_1792)"/>
<path d="M469.206 600.726H447.537C447.143 600.726 446.765 600.58 446.486 600.32C446.207 600.059 446.051 599.706 446.051 599.339C446.051 598.971 446.207 598.618 446.486 598.358C446.765 598.097 447.143 597.951 447.537 597.951H469.206C469.6 597.951 469.978 598.097 470.257 598.358C470.536 598.618 470.693 598.971 470.693 599.339C470.693 599.706 470.536 600.059 470.257 600.32C469.978 600.58 469.6 600.726 469.206 600.726Z" fill="url(#paint113_linear_174_1792)"/>
<path d="M469.501 278.568H447.832C447.438 278.568 447.06 278.422 446.781 278.161C446.503 277.901 446.346 277.548 446.346 277.18C446.346 276.812 446.503 276.46 446.781 276.199C447.06 275.939 447.438 275.793 447.832 275.793H469.501C469.896 275.793 470.274 275.939 470.553 276.199C470.831 276.46 470.988 276.812 470.988 277.18C470.988 277.548 470.831 277.901 470.553 278.161C470.274 278.422 469.896 278.568 469.501 278.568Z" fill="url(#paint114_linear_174_1792)"/>
<path d="M443.367 631.178C409.702 634.06 343.679 636.023 267.737 636.023C191.794 636.023 125.771 634.06 92.1005 631.178C76.9514 632.473 68.3494 633.958 68.3494 635.539V672.366C68.3494 677.466 157.616 681.578 267.737 681.578C377.858 681.578 467.135 677.451 467.135 672.366V635.539C467.135 633.968 458.516 632.473 443.367 631.178Z" fill="url(#paint115_linear_174_1792)"/>
<path style="mix-blend-mode:screen" d="M179.208 662.873C251.986 662.873 310.987 666.75 310.987 661.665V635.804C297.062 635.947 282.569 636.023 267.737 636.023C191.772 636.023 125.771 634.06 92.1005 631.178C76.9514 632.473 68.3494 633.958 68.3494 635.539V658.645C91.7999 661.19 132.673 662.873 179.208 662.873Z" fill="url(#paint116_linear_174_1792)"/>
<path style="mix-blend-mode:multiply" d="M443.367 631.178C420.075 633.172 381.295 634.748 334.454 635.493L334.159 668.591C334.159 673.692 203.118 670.631 163.146 670.631C128.093 670.631 95.4998 670.065 68.3494 669.101V672.371C68.3494 677.472 157.616 681.583 267.737 681.583C377.858 681.583 467.135 677.451 467.135 672.366V635.539C467.135 633.968 458.516 632.473 443.367 631.178Z" fill="url(#paint117_linear_174_1792)"/>
<path d="M267.737 636.008C191.772 636.008 125.771 634.044 92.1006 631.162C79.9955 632.182 72.0876 633.355 69.3933 634.585C79.6512 639.221 164.54 642.843 267.737 642.843C370.933 642.843 455.817 639.221 466.08 634.585C463.38 633.355 455.472 632.198 443.367 631.162C409.703 634.059 343.679 636.008 267.737 636.008Z" fill="url(#paint118_linear_174_1792)"/>
<path d="M754.007 456.235V610.683C754.007 622.119 640.011 622.119 640.011 610.683V456.235C640.011 446.625 754.007 446.625 754.007 456.235Z" fill="url(#paint119_linear_174_1792)"/>
<path style="mix-blend-mode:screen" d="M709.335 462.758V604.271C709.335 614.753 650.367 614.753 650.367 604.271V462.758C650.367 453.954 709.335 453.954 709.335 462.758Z" fill="url(#paint120_linear_174_1792)"/>
<path style="mix-blend-mode:multiply" d="M716.527 449.42V618.798C737.218 617.778 754.007 615.07 754.007 610.683V456.234C754.007 452.547 737.218 450.277 716.527 449.42Z" fill="url(#paint121_linear_174_1792)"/>
<path d="M648.575 679.817H639.574C639.323 679.815 639.076 679.759 638.852 679.654C638.627 679.549 638.432 679.397 638.28 679.211C638.129 679.024 638.025 678.807 637.977 678.577C637.93 678.347 637.94 678.11 638.006 677.884L650.723 635.768L662.997 647.841L650.1 678.853C649.978 679.138 649.768 679.382 649.496 679.554C649.224 679.726 648.903 679.817 648.575 679.817Z" fill="url(#paint122_linear_174_1792)"/>
<path style="mix-blend-mode:screen" d="M643.11 677.129L640.733 676.94C640.571 676.92 640.416 676.866 640.279 676.782C640.142 676.698 640.028 676.587 639.943 676.456C639.859 676.325 639.807 676.179 639.791 676.027C639.776 675.875 639.797 675.722 639.853 675.578L648.63 646.964C649.788 645.943 654.701 650.534 654.095 652.279L644.05 676.491C643.984 676.676 643.858 676.836 643.689 676.951C643.521 677.065 643.318 677.127 643.11 677.129Z" fill="url(#paint123_linear_174_1792)"/>
<path style="mix-blend-mode:multiply" d="M650.728 635.768L648.121 644.408C648.121 644.408 656.532 649.289 656.231 652.386C655.931 655.482 645.668 677.777 645.668 677.777C645.569 678.01 645.398 678.211 645.176 678.352C644.953 678.493 644.69 678.568 644.421 678.567H637.973C638.043 678.918 638.242 679.234 638.535 679.462C638.828 679.691 639.198 679.816 639.579 679.817H648.575C648.903 679.816 649.223 679.723 649.494 679.55C649.765 679.377 649.974 679.133 650.094 678.848L662.997 647.841L650.728 635.768Z" fill="url(#paint124_linear_174_1792)"/>
<path d="M744.623 679.817H753.624C753.875 679.815 754.122 679.759 754.346 679.654C754.571 679.549 754.766 679.397 754.918 679.211C755.069 679.024 755.173 678.807 755.221 678.577C755.268 678.347 755.258 678.11 755.192 677.884L742.475 635.768L730.201 647.841L743.12 678.853C743.24 679.135 743.447 679.376 743.715 679.548C743.982 679.72 744.298 679.813 744.623 679.817Z" fill="url(#paint125_linear_174_1792)"/>
<g style="mix-blend-mode:screen">
<path d="M745.416 677.017L748.984 676.869C749.14 676.869 749.294 676.835 749.434 676.771C749.574 676.706 749.695 676.612 749.79 676.495C749.884 676.379 749.948 676.244 749.977 676.101C750.006 675.958 749.999 675.811 749.957 675.671L741.175 651.187C740.273 649.825 734.502 653.151 735.404 654.513L744.47 676.39C744.539 676.573 744.667 676.731 744.836 676.844C745.006 676.956 745.208 677.017 745.416 677.017Z" fill="url(#paint126_linear_174_1792)"/>
</g>
<path style="mix-blend-mode:multiply" d="M755.192 677.884L742.475 635.768L730.201 647.841L732.846 654.191C732.846 654.191 740.497 648.07 742.645 649.325C744.792 650.58 753.438 676.711 753.438 676.711C753.711 677.399 752.99 678.083 751.99 678.083H743.667C743.302 678.087 742.945 677.986 742.645 677.792L743.082 678.848C743.202 679.133 743.411 679.377 743.682 679.55C743.953 679.723 744.273 679.816 744.601 679.817H753.602C753.855 679.818 754.105 679.765 754.332 679.661C754.559 679.557 754.757 679.406 754.911 679.219C755.065 679.032 755.171 678.814 755.219 678.582C755.268 678.351 755.259 678.112 755.192 677.884Z" fill="url(#paint127_linear_174_1792)"/>
<path d="M640.208 611.483C640.077 612.748 640.011 614.027 640.011 615.319C640.011 641.026 665.533 661.868 697.012 661.868C728.49 661.868 754.007 641.026 754.007 615.319C754.007 614.027 753.943 612.748 753.815 611.483C748.744 621.853 645.296 621.853 640.208 611.483Z" fill="url(#paint128_linear_174_1792)"/>
<path style="mix-blend-mode:screen" d="M713.488 622.374C688.267 625.521 653.078 621.793 643.929 617.411C643.929 630.673 657.838 641.354 669.828 642.404C691.393 644.282 705.635 635.554 713.488 622.374Z" fill="url(#paint129_linear_174_1792)"/>
<path style="mix-blend-mode:multiply" d="M753.815 611.483C752.864 613.422 748.476 614.998 741.934 616.212C736.972 637.788 713.784 654.11 685.923 654.11C674.978 654.162 664.21 651.538 654.69 646.5C665.123 655.936 680.217 661.868 697.011 661.868C728.49 661.868 754.007 641.026 754.007 615.319C754.007 614.03 753.943 612.752 753.815 611.483Z" fill="url(#paint130_linear_174_1792)"/>
<path d="M753.99 456.035C753.99 455.643 753.99 455.245 753.99 454.847C753.99 429.134 728.474 408.293 696.995 408.293C665.516 408.293 639.994 429.134 639.994 454.847C639.994 455.245 639.994 455.643 639.994 456.035C641.579 446.691 752.411 446.691 753.99 456.035Z" fill="url(#paint131_linear_174_1792)"/>
<path style="mix-blend-mode:multiply" d="M720.501 412.42C732.945 420.3 740.929 432.71 740.929 447.492C740.929 447.89 740.929 448.288 740.929 448.686C723.064 443.305 662.812 443.876 640.241 450.843C640.104 452.164 640.028 453.496 640.028 454.847C640.028 455.245 640.028 455.643 640.028 456.036C641.58 446.691 752.433 446.691 753.991 456.036C753.991 455.643 753.991 455.245 753.991 454.847C754.007 435.975 740.262 419.739 720.501 412.42Z" fill="url(#paint132_linear_174_1792)"/>
<path style="mix-blend-mode:screen" d="M692.612 435.995C705.133 435.995 711.532 437.168 722.151 439.259C717.489 423.376 707.127 411.68 688.317 411.68C668.681 411.68 649.466 427.752 645.11 441.366C657.865 437.969 676.364 435.995 692.612 435.995Z" fill="url(#paint133_linear_174_1792)"/>
<path d="M620.43 456.235V610.683C620.43 622.119 506.434 622.119 506.434 610.683V456.235C506.434 446.625 620.43 446.625 620.43 456.235Z" fill="url(#paint134_linear_174_1792)"/>
<path style="mix-blend-mode:screen" d="M575.759 462.758V604.271C575.759 614.753 516.791 614.753 516.791 604.271V462.758C516.791 453.954 575.759 453.954 575.759 462.758Z" fill="url(#paint135_linear_174_1792)"/>
<path style="mix-blend-mode:multiply" d="M582.945 449.42V618.798C603.641 617.778 620.43 615.07 620.43 610.683V456.234C620.43 452.547 603.641 450.277 582.945 449.42Z" fill="url(#paint136_linear_174_1792)"/>
<path d="M515.003 679.817H506.002C505.751 679.815 505.504 679.759 505.28 679.654C505.055 679.549 504.86 679.397 504.708 679.211C504.557 679.024 504.453 678.807 504.406 678.577C504.358 678.347 504.368 678.11 504.434 677.884L517.151 635.768L529.437 647.841L516.523 678.853C516.401 679.137 516.192 679.38 515.921 679.552C515.65 679.724 515.331 679.816 515.003 679.817Z" fill="url(#paint137_linear_174_1792)"/>
<path style="mix-blend-mode:screen" d="M509.506 677.129L507.128 676.94C506.966 676.92 506.811 676.866 506.674 676.782C506.538 676.698 506.423 676.587 506.339 676.456C506.254 676.325 506.202 676.179 506.187 676.027C506.171 675.875 506.192 675.722 506.248 675.578L515.025 646.964C516.184 645.943 521.097 650.534 520.49 652.279L510.446 676.491C510.379 676.676 510.253 676.836 510.085 676.951C509.916 677.065 509.714 677.127 509.506 677.129Z" fill="url(#paint138_linear_174_1792)"/>
<path style="mix-blend-mode:multiply" d="M517.151 635.768L514.544 644.408C514.544 644.408 522.955 649.289 522.654 652.386C522.354 655.482 512.09 677.777 512.09 677.777C511.992 678.01 511.821 678.211 511.598 678.352C511.376 678.493 511.113 678.568 510.844 678.567H504.396C504.466 678.918 504.664 679.234 504.958 679.462C505.251 679.691 505.62 679.816 506.002 679.817H515.003C515.331 679.816 515.651 679.723 515.922 679.55C516.193 679.377 516.402 679.133 516.522 678.848L529.436 647.841L517.151 635.768Z" fill="url(#paint139_linear_174_1792)"/>
<path d="M611.046 679.817H620.047C620.298 679.815 620.545 679.759 620.77 679.654C620.994 679.549 621.189 679.397 621.341 679.211C621.493 679.024 621.596 678.807 621.644 678.577C621.691 678.347 621.682 678.11 621.616 677.884L608.893 635.768L596.624 647.841L609.527 678.848C609.647 679.133 609.856 679.377 610.127 679.55C610.398 679.723 610.718 679.816 611.046 679.817Z" fill="url(#paint140_linear_174_1792)"/>
<g style="mix-blend-mode:screen">
<path d="M611.839 677.017L615.408 676.869C615.564 676.869 615.718 676.835 615.857 676.771C615.997 676.706 616.119 676.612 616.213 676.495C616.307 676.379 616.371 676.244 616.4 676.101C616.429 675.958 616.423 675.811 616.38 675.671L607.598 651.187C606.696 649.825 600.925 653.151 601.827 654.513L610.894 676.39C610.962 676.573 611.09 676.731 611.26 676.844C611.429 676.956 611.631 677.017 611.839 677.017Z" fill="url(#paint141_linear_174_1792)"/>
</g>
<path style="mix-blend-mode:multiply" d="M621.616 677.884L608.893 635.768L596.624 647.841L599.269 654.191C599.269 654.191 606.92 648.07 609.068 649.325C611.215 650.58 619.861 676.711 619.861 676.711C620.134 677.399 619.413 678.083 618.413 678.083H610.112C609.747 678.087 609.39 677.986 609.09 677.792L609.527 678.848C609.647 679.133 609.856 679.377 610.127 679.55C610.398 679.723 610.718 679.816 611.046 679.817H620.047C620.298 679.815 620.545 679.759 620.77 679.654C620.994 679.549 621.189 679.397 621.341 679.211C621.493 679.024 621.596 678.807 621.644 678.577C621.691 678.347 621.682 678.11 621.616 677.884Z" fill="url(#paint142_linear_174_1792)"/>
<path d="M506.631 611.483C506.5 612.748 506.434 614.027 506.434 615.319C506.434 641.026 531.95 661.868 563.435 661.868C594.919 661.868 620.43 641.026 620.43 615.319C620.43 614.027 620.366 612.748 620.239 611.483C615.167 621.853 511.697 621.853 506.631 611.483Z" fill="url(#paint143_linear_174_1792)"/>
<path style="mix-blend-mode:screen" d="M579.912 622.374C554.691 625.521 519.501 621.793 510.353 617.411C510.353 630.673 524.261 641.354 536.252 642.404C557.817 644.282 572.064 635.554 579.912 622.374Z" fill="url(#paint144_linear_174_1792)"/>
<path style="mix-blend-mode:multiply" d="M620.239 611.483C619.288 613.422 614.899 614.998 608.358 616.212C603.395 637.788 580.207 654.11 552.346 654.11C541.402 654.162 530.634 651.538 521.114 646.5C531.546 655.936 546.641 661.868 563.435 661.868C594.914 661.868 620.43 641.026 620.43 615.319C620.43 614.03 620.366 612.752 620.239 611.483Z" fill="url(#paint145_linear_174_1792)"/>
<path d="M620.413 456.035C620.413 455.643 620.413 455.245 620.413 454.847C620.413 429.134 594.897 408.293 563.418 408.293C531.939 408.293 506.417 429.134 506.417 454.847C506.417 455.245 506.417 455.643 506.417 456.035C507.997 446.691 618.856 446.691 620.413 456.035Z" fill="url(#paint146_linear_174_1792)"/>
<path style="mix-blend-mode:multiply" d="M586.923 412.42C599.367 420.3 607.352 432.71 607.352 447.492C607.352 447.89 607.352 448.288 607.352 448.686C589.47 443.305 529.218 443.876 506.647 450.854C506.511 452.175 506.434 453.506 506.434 454.858C506.434 455.255 506.434 455.653 506.434 456.046C507.981 446.702 618.839 446.702 620.397 456.046C620.397 455.653 620.397 455.255 620.397 454.858C620.43 435.975 606.685 419.739 586.923 412.42Z" fill="url(#paint147_linear_174_1792)"/>
<path style="mix-blend-mode:screen" d="M559.035 435.995C571.556 435.995 577.955 437.168 588.574 439.259C583.912 423.376 573.55 411.68 554.74 411.68C535.104 411.68 515.889 427.752 511.533 441.366C524.277 437.969 542.788 435.995 559.035 435.995Z" fill="url(#paint148_linear_174_1792)"/>
<path d="M486.853 456.235V610.683C486.853 622.119 372.857 622.119 372.857 610.683V456.235C372.857 446.625 486.853 446.625 486.853 456.235Z" fill="url(#paint149_linear_174_1792)"/>
<path style="mix-blend-mode:screen" d="M442.181 462.758V604.271C442.181 614.753 383.213 614.753 383.213 604.271V462.758C383.213 453.954 442.181 453.954 442.181 462.758Z" fill="url(#paint150_linear_174_1792)"/>
<path style="mix-blend-mode:multiply" d="M449.368 449.42V618.798C470.064 617.778 486.853 615.07 486.853 610.683V456.234C486.853 452.547 470.064 450.277 449.368 449.42Z" fill="url(#paint151_linear_174_1792)"/>
<path d="M381.427 679.817H372.426C372.175 679.815 371.927 679.759 371.703 679.654C371.479 679.549 371.283 679.397 371.132 679.211C370.98 679.024 370.877 678.807 370.829 678.577C370.781 678.347 370.791 678.11 370.857 677.884L383.574 635.768L395.849 647.841L382.973 678.853C382.85 679.141 382.637 679.387 382.361 679.56C382.084 679.732 381.759 679.821 381.427 679.817Z" fill="url(#paint152_linear_174_1792)"/>
<path style="mix-blend-mode:screen" d="M375.929 677.129L373.551 676.94C373.389 676.92 373.234 676.866 373.098 676.782C372.961 676.698 372.846 676.587 372.762 676.456C372.677 676.325 372.625 676.179 372.61 676.027C372.594 675.875 372.615 675.722 372.671 675.578L381.448 646.964C382.607 645.943 387.52 650.534 386.913 652.279L376.869 676.491C376.803 676.676 376.677 676.836 376.508 676.951C376.339 677.065 376.137 677.127 375.929 677.129Z" fill="url(#paint153_linear_174_1792)"/>
<path style="mix-blend-mode:multiply" d="M383.574 635.768L380.967 644.408C380.967 644.408 389.378 649.289 389.078 652.386C388.777 655.482 378.514 677.777 378.514 677.777C378.416 678.01 378.244 678.211 378.022 678.352C377.799 678.493 377.536 678.568 377.268 678.567H370.819C370.889 678.918 371.088 679.234 371.381 679.462C371.674 679.691 372.044 679.816 372.426 679.817H381.427C381.759 679.821 382.084 679.732 382.36 679.56C382.637 679.387 382.85 679.141 382.973 678.853L395.876 647.846L383.574 635.768Z" fill="url(#paint154_linear_174_1792)"/>
<path d="M477.469 679.817H486.47C486.721 679.815 486.969 679.759 487.193 679.654C487.417 679.549 487.613 679.397 487.764 679.211C487.916 679.024 488.019 678.807 488.067 678.577C488.115 678.347 488.105 678.11 488.039 677.884L475.333 635.768L463.063 647.841L475.95 678.853C476.071 679.137 476.281 679.38 476.551 679.552C476.822 679.724 477.142 679.816 477.469 679.817Z" fill="url(#paint155_linear_174_1792)"/>
<g style="mix-blend-mode:screen">
<path d="M478.262 677.017L481.831 676.869C481.987 676.869 482.14 676.835 482.28 676.771C482.42 676.706 482.542 676.612 482.636 676.495C482.73 676.379 482.794 676.244 482.823 676.101C482.852 675.958 482.845 675.811 482.803 675.671L474.021 651.187C473.119 649.825 467.348 653.151 468.25 654.513L477.316 676.39C477.385 676.573 477.513 676.731 477.682 676.844C477.852 676.956 478.054 677.017 478.262 677.017Z" fill="url(#paint156_linear_174_1792)"/>
</g>
<path style="mix-blend-mode:multiply" d="M488.039 677.884L475.333 635.768L463.063 647.841L465.709 654.191C465.709 654.191 473.332 648.07 475.507 649.325C477.683 650.58 486.263 676.711 486.263 676.711C486.536 677.399 485.815 678.083 484.814 678.083H476.535C476.17 678.087 475.813 677.986 475.513 677.792L475.95 678.848C476.07 679.133 476.279 679.377 476.55 679.55C476.821 679.723 477.141 679.816 477.469 679.817H486.47C486.721 679.815 486.969 679.759 487.193 679.654C487.417 679.549 487.613 679.397 487.764 679.211C487.916 679.024 488.019 678.807 488.067 678.577C488.115 678.347 488.105 678.11 488.039 677.884Z" fill="url(#paint157_linear_174_1792)"/>
<path d="M373.048 611.483C372.921 612.748 372.857 614.027 372.857 615.319C372.857 641.026 398.373 661.868 429.857 661.868C461.342 661.868 486.853 641.026 486.853 615.319C486.853 614.027 486.789 612.748 486.661 611.483C481.59 621.853 378.12 621.853 373.048 611.483Z" fill="url(#paint158_linear_174_1792)"/>
<path style="mix-blend-mode:screen" d="M446.335 622.374C421.114 625.521 385.924 621.793 376.776 617.411C376.776 630.673 390.684 641.354 402.675 642.404C424.24 644.282 438.482 635.554 446.335 622.374Z" fill="url(#paint159_linear_174_1792)"/>
<path style="mix-blend-mode:multiply" d="M486.662 611.483C485.711 613.422 481.322 614.998 474.781 616.212C469.818 637.788 446.63 654.11 418.769 654.11C407.825 654.162 397.057 651.538 387.536 646.5C397.969 655.936 413.064 661.868 429.858 661.868C461.337 661.868 486.853 641.026 486.853 615.319C486.853 614.03 486.789 612.752 486.662 611.483Z" fill="url(#paint160_linear_174_1792)"/>
<path d="M486.837 456.035C486.837 455.643 486.837 455.245 486.837 454.847C486.837 429.134 461.32 408.293 429.842 408.293C398.363 408.293 372.841 429.134 372.841 454.847C372.841 455.245 372.841 455.643 372.841 456.035C374.42 446.691 485.279 446.691 486.837 456.035Z" fill="url(#paint161_linear_174_1792)"/>
<path style="mix-blend-mode:multiply" d="M453.347 412.42C465.79 420.3 473.775 432.71 473.775 447.492C473.775 447.89 473.775 448.288 473.775 448.686C455.91 443.305 395.657 443.876 373.087 450.843C372.95 452.164 372.874 453.496 372.874 454.847C372.874 455.245 372.874 455.643 372.874 456.036C374.42 446.691 485.279 446.691 486.836 456.036C486.836 455.643 486.836 455.245 486.836 454.847C486.853 435.975 473.108 419.739 453.347 412.42Z" fill="url(#paint162_linear_174_1792)"/>
<path style="mix-blend-mode:screen" d="M425.458 435.995C437.979 435.995 444.378 437.168 454.97 439.259C450.308 423.376 439.946 411.68 421.135 411.68C401.5 411.68 382.284 427.752 377.929 441.366C390.701 437.969 409.205 435.995 425.458 435.995Z" fill="url(#paint163_linear_174_1792)"/>
<path d="M332.683 534.953H100.091V675.762H332.683V534.953Z" fill="url(#paint164_linear_174_1792)"/>
<path style="mix-blend-mode:screen" d="M288.542 665.934L100.091 667.321V534.953L288.542 587.153V665.934Z" fill="url(#paint165_linear_174_1792)"/>
<path d="M332.683 675.762L356.97 675.518V535.081L332.683 534.953V675.762Z" fill="url(#paint166_linear_174_1792)"/>
<path style="mix-blend-mode:screen" d="M332.683 675.762L337.356 673.676V535.05L332.683 534.953V675.762Z" fill="url(#paint167_linear_174_1792)"/>
<path style="mix-blend-mode:multiply" d="M332.683 675.763L356.97 675.518V535.081L353.511 673.432L332.683 675.763Z" fill="url(#paint168_linear_174_1792)"/>
<path d="M298.21 532.311H61.2559V675.762H298.21V532.311Z" fill="url(#paint169_linear_174_1792)"/>
<path style="mix-blend-mode:screen" d="M253.243 665.749L61.2559 667.162V532.311L253.243 585.49V665.749Z" fill="url(#paint170_linear_174_1792)"/>
<path d="M298.204 675.762L322.95 675.512V532.443L298.204 532.311V675.762Z" fill="url(#paint171_linear_174_1792)"/>
<path style="mix-blend-mode:screen" d="M298.204 675.762L302.97 673.635V532.413L298.204 532.311V675.762Z" fill="url(#paint172_linear_174_1792)"/>
<path style="mix-blend-mode:multiply" d="M298.204 675.762L322.95 675.512V532.443L319.425 673.385L298.204 675.762Z" fill="url(#paint173_linear_174_1792)"/>
<path d="M261.873 528.726H19V675.758H261.873V528.726Z" fill="url(#paint174_linear_174_1792)"/>
<path style="mix-blend-mode:screen" d="M215.786 665.5L19 666.949V528.726L215.786 583.237V665.5Z" fill="url(#paint175_linear_174_1792)"/>
<path d="M261.873 675.763L287.236 675.508V528.863L261.873 528.726V675.763Z" fill="url(#paint176_linear_174_1792)"/>
<path style="mix-blend-mode:screen" d="M261.873 675.763L266.753 673.58V528.833L261.873 528.726V675.763Z" fill="url(#paint177_linear_174_1792)"/>
<path style="mix-blend-mode:multiply" d="M261.873 675.763L287.236 675.508V528.863L283.623 673.33L261.873 675.763Z" fill="url(#paint178_linear_174_1792)"/>
<path style="mix-blend-mode:multiply" d="M225.006 556.019L237.46 675.757L215.524 675.742L218.311 557.967L225.006 556.019Z" fill="url(#paint179_linear_174_1792)"/>
<path d="M221.814 573.983H208.851V676.604H221.814V573.983Z" fill="url(#paint180_linear_174_1792)"/>
<path style="mix-blend-mode:screen" d="M213.43 586.317H208.851V676.605H213.43V586.317Z" fill="url(#paint181_linear_174_1792)"/>
<path style="mix-blend-mode:multiply" d="M208.851 573.983V584.787H216.141V676.604H221.814V573.983H208.851Z" fill="url(#paint182_linear_174_1792)"/>
<path d="M218.191 579.987H197.746L204.561 556.019H225.006L218.191 579.987Z" fill="url(#paint183_linear_174_1792)"/>
<path style="mix-blend-mode:multiply" d="M218.19 579.987L223.481 556.794L204.561 556.019H225.005L218.19 579.987Z" fill="url(#paint184_linear_174_1792)"/>
<path style="mix-blend-mode:screen" d="M218.191 579.987H197.746L204.561 556.019L200.735 577.64L218.191 579.987Z" fill="url(#paint185_linear_174_1792)"/>
<path d="M218.19 579.987H224.634L225.005 556.019L218.19 579.987Z" fill="url(#paint186_linear_174_1792)"/>
<path style="mix-blend-mode:multiply" d="M80.2966 556.019L92.746 675.757L70.8147 675.742L73.5964 557.967L80.2966 556.019Z" fill="url(#paint187_linear_174_1792)"/>
<path d="M77.1047 573.983H64.1416V676.604H77.1047V573.983Z" fill="url(#paint188_linear_174_1792)"/>
<path style="mix-blend-mode:screen" d="M68.7213 586.317H64.1416V676.605H68.7213V586.317Z" fill="url(#paint189_linear_174_1792)"/>
<path style="mix-blend-mode:multiply" d="M64.1416 573.983V584.787H71.432V676.604H77.1047V573.983H64.1416Z" fill="url(#paint190_linear_174_1792)"/>
<path d="M73.4814 579.987H53.0366L59.8516 556.019H80.2963L73.4814 579.987Z" fill="url(#paint191_linear_174_1792)"/>
<path style="mix-blend-mode:multiply" d="M73.4812 579.987L78.7659 556.794L59.8513 556.019H80.2961L73.4812 579.987Z" fill="url(#paint192_linear_174_1792)"/>
<path style="mix-blend-mode:screen" d="M73.4814 579.987H53.0366L59.8516 556.019L56.026 577.64L73.4814 579.987Z" fill="url(#paint193_linear_174_1792)"/>
<path d="M73.481 579.987H79.9188L80.2959 556.019L73.481 579.987Z" fill="url(#paint194_linear_174_1792)"/>
</g>
<defs>
<linearGradient id="paint0_linear_174_1792" x1="654.144" y1="195.646" x2="663.946" y2="126.962" gradientUnits="userSpaceOnUse">
<stop stop-color="#708DA0"/>
<stop offset="1" stop-color="#516172"/>
</linearGradient>
<linearGradient id="paint1_linear_174_1792" x1="616.375" y1="90.8828" x2="676.978" y2="181.556" gradientUnits="userSpaceOnUse">
<stop stop-color="white"/>
<stop offset="1" stop-color="#B5CBE3"/>
</linearGradient>
<linearGradient id="paint2_linear_174_1792" x1="565.124" y1="93.5759" x2="688.574" y2="93.5759" gradientUnits="userSpaceOnUse">
<stop stop-color="#708DA0"/>
<stop offset="1" stop-color="#516172"/>
</linearGradient>
<linearGradient id="paint3_linear_174_1792" x1="582.475" y1="32.0769" x2="646.006" y2="127.13" gradientUnits="userSpaceOnUse">
<stop stop-color="white"/>
<stop offset="1" stop-color="#B5CBE3"/>
</linearGradient>
<linearGradient id="paint4_linear_174_1792" x1="558.199" y1="93.9942" x2="634.486" y2="93.9942" gradientUnits="userSpaceOnUse">
<stop stop-color="#9BB3C3"/>
<stop offset="1" stop-color="#778695"/>
</linearGradient>
<linearGradient id="paint5_linear_174_1792" x1="562.046" y1="88.1539" x2="609.789" y2="88.1539" gradientUnits="userSpaceOnUse">
<stop stop-color="#9BB3C3"/>
<stop offset="1"/>
</linearGradient>
<linearGradient id="paint6_linear_174_1792" x1="571.332" y1="71.1478" x2="615.477" y2="137.201" gradientUnits="userSpaceOnUse">
<stop stop-color="white"/>
<stop offset="1" stop-color="#B5CBE3"/>
</linearGradient>
<linearGradient id="paint7_linear_174_1792" x1="683.218" y1="59.6007" x2="657.77" y2="102.608" gradientUnits="userSpaceOnUse">
<stop stop-color="#9BB3C3"/>
<stop offset="1"/>
</linearGradient>
<linearGradient id="paint8_linear_174_1792" x1="541.946" y1="119.66" x2="542.772" y2="119.66" gradientUnits="userSpaceOnUse">
<stop stop-color="#BFC2C3"/>
<stop offset="1" stop-color="#8F9295"/>
</linearGradient>
<linearGradient id="paint9_linear_174_1792" x1="554.499" y1="117.416" x2="555.324" y2="117.416" gradientUnits="userSpaceOnUse">
<stop stop-color="#BFC2C3"/>
<stop offset="1" stop-color="#8F9295"/>
</linearGradient>
<linearGradient id="paint10_linear_174_1792" x1="646.553" y1="119.66" x2="647.378" y2="119.66" gradientUnits="userSpaceOnUse">
<stop stop-color="#BFC2C3"/>
<stop offset="1" stop-color="#8F9295"/>
</linearGradient>
<linearGradient id="paint11_linear_174_1792" x1="634" y1="117.416" x2="634.825" y2="117.416" gradientUnits="userSpaceOnUse">
<stop stop-color="#BFC2C3"/>
<stop offset="1" stop-color="#8F9295"/>
</linearGradient>
<linearGradient id="paint12_linear_174_1792" x1="578.606" y1="115.754" x2="579.436" y2="115.754" gradientUnits="userSpaceOnUse">
<stop stop-color="#BFC2C3"/>
<stop offset="1" stop-color="#8F9295"/>
</linearGradient>
<linearGradient id="paint13_linear_174_1792" x1="606.701" y1="115.754" x2="607.526" y2="115.754" gradientUnits="userSpaceOnUse">
<stop stop-color="#BFC2C3"/>
<stop offset="1" stop-color="#8F9295"/>
</linearGradient>
<linearGradient id="paint14_linear_174_1792" x1="596.597" y1="100.273" x2="596.597" y2="124.578" gradientUnits="userSpaceOnUse">
<stop stop-color="#BFC2C3"/>
<stop offset="1" stop-color="#8F9295"/>
</linearGradient>
<linearGradient id="paint15_linear_174_1792" x1="477.655" y1="406.38" x2="706.439" y2="406.38" gradientUnits="userSpaceOnUse">
<stop stop-color="#EBEEF0"/>
<stop offset="1" stop-color="#BABEC2"/>
</linearGradient>
<linearGradient id="paint16_linear_174_1792" x1="485.618" y1="406.381" x2="617.484" y2="406.381" gradientUnits="userSpaceOnUse">
<stop stop-color="#EBEEF0"/>
<stop offset="1"/>
</linearGradient>
<linearGradient id="paint17_linear_174_1792" x1="615.167" y1="406.579" x2="692.088" y2="406.579" gradientUnits="userSpaceOnUse">
<stop stop-color="white"/>
<stop offset="1" stop-color="#BABEC2"/>
</linearGradient>
<linearGradient id="paint18_linear_174_1792" x1="477.546" y1="216.395" x2="706.756" y2="216.395" gradientUnits="userSpaceOnUse">
<stop stop-color="#F0F3F5"/>
<stop offset="1" stop-color="#BFC3C7"/>
</linearGradient>
<linearGradient id="paint19_linear_174_1792" x1="477.546" y1="295.445" x2="706.756" y2="295.445" gradientUnits="userSpaceOnUse">
<stop stop-color="#F0F3F5"/>
<stop offset="1" stop-color="#BFC3C7"/>
</linearGradient>
<linearGradient id="paint20_linear_174_1792" x1="477.546" y1="379.3" x2="706.756" y2="379.3" gradientUnits="userSpaceOnUse">
<stop stop-color="#F0F3F5"/>
<stop offset="1" stop-color="#BFC3C7"/>
</linearGradient>
<linearGradient id="paint21_linear_174_1792" x1="477.546" y1="463.691" x2="706.756" y2="463.691" gradientUnits="userSpaceOnUse">
<stop stop-color="#F0F3F5"/>
<stop offset="1" stop-color="#BFC3C7"/>
</linearGradient>
<linearGradient id="paint22_linear_174_1792" x1="477.546" y1="548.393" x2="706.756" y2="548.393" gradientUnits="userSpaceOnUse">
<stop stop-color="#F0F3F5"/>
<stop offset="1" stop-color="#BFC3C7"/>
</linearGradient>
<linearGradient id="paint23_linear_174_1792" x1="477.545" y1="628.581" x2="706.755" y2="628.581" gradientUnits="userSpaceOnUse">
<stop stop-color="#F0F3F5"/>
<stop offset="1" stop-color="#BFC3C7"/>
</linearGradient>
<linearGradient id="paint24_linear_174_1792" x1="541.919" y1="412.281" x2="544.509" y2="412.281" gradientUnits="userSpaceOnUse">
<stop stop-color="#BFC2C3"/>
<stop offset="1" stop-color="#8F9295"/>
</linearGradient>
<linearGradient id="paint25_linear_174_1792" x1="567.397" y1="410.966" x2="569.982" y2="410.966" gradientUnits="userSpaceOnUse">
<stop stop-color="#BFC2C3"/>
<stop offset="1" stop-color="#8F9295"/>
</linearGradient>
<linearGradient id="paint26_linear_174_1792" x1="542.246" y1="141.384" x2="569.834" y2="141.384" gradientUnits="userSpaceOnUse">
<stop stop-color="#BFC2C3"/>
<stop offset="1" stop-color="#8F9295"/>
</linearGradient>
<linearGradient id="paint27_linear_174_1792" x1="542.246" y1="183.935" x2="569.834" y2="183.935" gradientUnits="userSpaceOnUse">
<stop stop-color="#BFC2C3"/>
<stop offset="1" stop-color="#8F9295"/>
</linearGradient>
<linearGradient id="paint28_linear_174_1792" x1="542.246" y1="226.489" x2="569.834" y2="226.489" gradientUnits="userSpaceOnUse">
<stop stop-color="#BFC2C3"/>
<stop offset="1" stop-color="#8F9295"/>
</linearGradient>
<linearGradient id="paint29_linear_174_1792" x1="542.246" y1="269.039" x2="569.834" y2="269.039" gradientUnits="userSpaceOnUse">
<stop stop-color="#BFC2C3"/>
<stop offset="1" stop-color="#8F9295"/>
</linearGradient>
<linearGradient id="paint30_linear_174_1792" x1="542.246" y1="311.594" x2="569.834" y2="311.594" gradientUnits="userSpaceOnUse">
<stop stop-color="#BFC2C3"/>
<stop offset="1" stop-color="#8F9295"/>
</linearGradient>
<linearGradient id="paint31_linear_174_1792" x1="542.246" y1="354.149" x2="569.834" y2="354.149" gradientUnits="userSpaceOnUse">
<stop stop-color="#BFC2C3"/>
<stop offset="1" stop-color="#8F9295"/>
</linearGradient>
<linearGradient id="paint32_linear_174_1792" x1="542.246" y1="396.699" x2="569.834" y2="396.699" gradientUnits="userSpaceOnUse">
<stop stop-color="#BFC2C3"/>
<stop offset="1" stop-color="#8F9295"/>
</linearGradient>
<linearGradient id="paint33_linear_174_1792" x1="542.246" y1="439.254" x2="569.834" y2="439.254" gradientUnits="userSpaceOnUse">
<stop stop-color="#BFC2C3"/>
<stop offset="1" stop-color="#8F9295"/>
</linearGradient>
<linearGradient id="paint34_linear_174_1792" x1="542.246" y1="481.804" x2="569.834" y2="481.804" gradientUnits="userSpaceOnUse">
<stop stop-color="#BFC2C3"/>
<stop offset="1" stop-color="#8F9295"/>
</linearGradient>
<linearGradient id="paint35_linear_174_1792" x1="542.246" y1="524.359" x2="569.834" y2="524.359" gradientUnits="userSpaceOnUse">
<stop stop-color="#BFC2C3"/>
<stop offset="1" stop-color="#8F9295"/>
</linearGradient>
<linearGradient id="paint36_linear_174_1792" x1="542.246" y1="566.908" x2="569.834" y2="566.908" gradientUnits="userSpaceOnUse">
<stop stop-color="#BFC2C3"/>
<stop offset="1" stop-color="#8F9295"/>
</linearGradient>
<linearGradient id="paint37_linear_174_1792" x1="542.246" y1="609.464" x2="569.834" y2="609.464" gradientUnits="userSpaceOnUse">
<stop stop-color="#BFC2C3"/>
<stop offset="1" stop-color="#8F9295"/>
</linearGradient>
<linearGradient id="paint38_linear_174_1792" x1="542.246" y1="652.014" x2="569.834" y2="652.014" gradientUnits="userSpaceOnUse">
<stop stop-color="#BFC2C3"/>
<stop offset="1" stop-color="#8F9295"/>
</linearGradient>
<linearGradient id="paint39_linear_174_1792" x1="530.65" y1="413.261" x2="533.24" y2="413.261" gradientUnits="userSpaceOnUse">
<stop stop-color="#BFC2C3"/>
<stop offset="1" stop-color="#8F9295"/>
</linearGradient>
<linearGradient id="paint40_linear_174_1792" x1="550.63" y1="134.468" x2="550.854" y2="147.153" gradientUnits="userSpaceOnUse">
<stop stop-color="#BFC2C3"/>
<stop offset="1" stop-color="#8F9295"/>
</linearGradient>
<linearGradient id="paint41_linear_174_1792" x1="550.778" y1="200.532" x2="550.778" y2="210.479" gradientUnits="userSpaceOnUse">
<stop stop-color="#BFC2C3"/>
<stop offset="1" stop-color="#8F9295"/>
</linearGradient>
<linearGradient id="paint42_linear_174_1792" x1="550.778" y1="265.3" x2="550.778" y2="279.276" gradientUnits="userSpaceOnUse">
<stop stop-color="#BFC2C3"/>
<stop offset="1" stop-color="#8F9295"/>
</linearGradient>
<linearGradient id="paint43_linear_174_1792" x1="550.778" y1="333.879" x2="550.778" y2="342.372" gradientUnits="userSpaceOnUse">
<stop stop-color="#BFC2C3"/>
<stop offset="1" stop-color="#8F9295"/>
</linearGradient>
<linearGradient id="paint44_linear_174_1792" x1="550.778" y1="398.862" x2="550.778" y2="408.217" gradientUnits="userSpaceOnUse">
<stop stop-color="#BFC2C3"/>
<stop offset="1" stop-color="#8F9295"/>
</linearGradient>
<linearGradient id="paint45_linear_174_1792" x1="550.778" y1="465.961" x2="550.778" y2="472.526" gradientUnits="userSpaceOnUse">
<stop stop-color="#BFC2C3"/>
<stop offset="1" stop-color="#8F9295"/>
</linearGradient>
<linearGradient id="paint46_linear_174_1792" x1="550.778" y1="529.668" x2="550.778" y2="538.385" gradientUnits="userSpaceOnUse">
<stop stop-color="#BFC2C3"/>
<stop offset="1" stop-color="#8F9295"/>
</linearGradient>
<linearGradient id="paint47_linear_174_1792" x1="550.778" y1="593.922" x2="550.778" y2="602.639" gradientUnits="userSpaceOnUse">
<stop stop-color="#BFC2C3"/>
<stop offset="1" stop-color="#8F9295"/>
</linearGradient>
<linearGradient id="paint48_linear_174_1792" x1="550.778" y1="662.796" x2="550.778" y2="671.518" gradientUnits="userSpaceOnUse">
<stop stop-color="#BFC2C3"/>
<stop offset="1" stop-color="#8F9295"/>
</linearGradient>
<linearGradient id="paint49_linear_174_1792" x1="557.095" y1="411.368" x2="558.713" y2="411.368" gradientUnits="userSpaceOnUse">
<stop stop-color="#BFC2C3"/>
<stop offset="1" stop-color="#8F9295"/>
</linearGradient>
<linearGradient id="paint50_linear_174_1792" x1="522.19" y1="396.888" x2="524.78" y2="396.888" gradientUnits="userSpaceOnUse">
<stop stop-color="#BFC2C3"/>
<stop offset="1" stop-color="#8F9295"/>
</linearGradient>
<linearGradient id="paint51_linear_174_1792" x1="547.668" y1="394.817" x2="550.253" y2="394.817" gradientUnits="userSpaceOnUse">
<stop stop-color="#BFC2C3"/>
<stop offset="1" stop-color="#8F9295"/>
</linearGradient>
<linearGradient id="paint52_linear_174_1792" x1="522.518" y1="141.385" x2="550.111" y2="141.385" gradientUnits="userSpaceOnUse">
<stop stop-color="#BFC2C3"/>
<stop offset="1" stop-color="#8F9295"/>
</linearGradient>
<linearGradient id="paint53_linear_174_1792" x1="522.518" y1="183.935" x2="550.111" y2="183.935" gradientUnits="userSpaceOnUse">
<stop stop-color="#BFC2C3"/>
<stop offset="1" stop-color="#8F9295"/>
</linearGradient>
<linearGradient id="paint54_linear_174_1792" x1="522.518" y1="226.489" x2="550.111" y2="226.489" gradientUnits="userSpaceOnUse">
<stop stop-color="#BFC2C3"/>
<stop offset="1" stop-color="#8F9295"/>
</linearGradient>
<linearGradient id="paint55_linear_174_1792" x1="522.518" y1="269.039" x2="550.111" y2="269.039" gradientUnits="userSpaceOnUse">
<stop stop-color="#BFC2C3"/>
<stop offset="1" stop-color="#8F9295"/>
</linearGradient>
<linearGradient id="paint56_linear_174_1792" x1="522.518" y1="311.594" x2="550.111" y2="311.594" gradientUnits="userSpaceOnUse">
<stop stop-color="#BFC2C3"/>
<stop offset="1" stop-color="#8F9295"/>
</linearGradient>
<linearGradient id="paint57_linear_174_1792" x1="522.518" y1="354.15" x2="550.111" y2="354.15" gradientUnits="userSpaceOnUse">
<stop stop-color="#BFC2C3"/>
<stop offset="1" stop-color="#8F9295"/>
</linearGradient>
<linearGradient id="paint58_linear_174_1792" x1="522.518" y1="396.699" x2="550.111" y2="396.699" gradientUnits="userSpaceOnUse">
<stop stop-color="#BFC2C3"/>
<stop offset="1" stop-color="#8F9295"/>
</linearGradient>
<linearGradient id="paint59_linear_174_1792" x1="522.518" y1="439.254" x2="550.111" y2="439.254" gradientUnits="userSpaceOnUse">
<stop stop-color="#BFC2C3"/>
<stop offset="1" stop-color="#8F9295"/>
</linearGradient>
<linearGradient id="paint60_linear_174_1792" x1="522.518" y1="481.804" x2="550.111" y2="481.804" gradientUnits="userSpaceOnUse">
<stop stop-color="#BFC2C3"/>
<stop offset="1" stop-color="#8F9295"/>
</linearGradient>
<linearGradient id="paint61_linear_174_1792" x1="522.518" y1="524.359" x2="550.111" y2="524.359" gradientUnits="userSpaceOnUse">
<stop stop-color="#BFC2C3"/>
<stop offset="1" stop-color="#8F9295"/>
</linearGradient>
<linearGradient id="paint62_linear_174_1792" x1="522.518" y1="566.908" x2="550.111" y2="566.908" gradientUnits="userSpaceOnUse">
<stop stop-color="#BFC2C3"/>
<stop offset="1" stop-color="#8F9295"/>
</linearGradient>
<linearGradient id="paint63_linear_174_1792" x1="522.518" y1="609.464" x2="550.111" y2="609.464" gradientUnits="userSpaceOnUse">
<stop stop-color="#BFC2C3"/>
<stop offset="1" stop-color="#8F9295"/>
</linearGradient>
<linearGradient id="paint64_linear_174_1792" x1="522.518" y1="652.014" x2="550.111" y2="652.014" gradientUnits="userSpaceOnUse">
<stop stop-color="#BFC2C3"/>
<stop offset="1" stop-color="#8F9295"/>
</linearGradient>
<linearGradient id="paint65_linear_174_1792" x1="510.921" y1="396.255" x2="541.071" y2="396.255" gradientUnits="userSpaceOnUse">
<stop stop-color="#BFC2C3"/>
<stop offset="1" stop-color="#8F9295"/>
</linearGradient>
<linearGradient id="paint66_linear_174_1792" x1="530.901" y1="134.468" x2="531.125" y2="147.154" gradientUnits="userSpaceOnUse">
<stop stop-color="#BFC2C3"/>
<stop offset="1" stop-color="#8F9295"/>
</linearGradient>
<linearGradient id="paint67_linear_174_1792" x1="531.049" y1="200.532" x2="531.049" y2="210.479" gradientUnits="userSpaceOnUse">
<stop stop-color="#BFC2C3"/>
<stop offset="1" stop-color="#8F9295"/>
</linearGradient>
<linearGradient id="paint68_linear_174_1792" x1="531.049" y1="265.301" x2="531.049" y2="279.277" gradientUnits="userSpaceOnUse">
<stop stop-color="#BFC2C3"/>
<stop offset="1" stop-color="#8F9295"/>
</linearGradient>
<linearGradient id="paint69_linear_174_1792" x1="531.049" y1="333.879" x2="531.049" y2="342.372" gradientUnits="userSpaceOnUse">
<stop stop-color="#BFC2C3"/>
<stop offset="1" stop-color="#8F9295"/>
</linearGradient>
<linearGradient id="paint70_linear_174_1792" x1="531.049" y1="398.862" x2="531.049" y2="408.217" gradientUnits="userSpaceOnUse">
<stop stop-color="#BFC2C3"/>
<stop offset="1" stop-color="#8F9295"/>
</linearGradient>
<linearGradient id="paint71_linear_174_1792" x1="531.049" y1="465.961" x2="531.049" y2="472.526" gradientUnits="userSpaceOnUse">
<stop stop-color="#BFC2C3"/>
<stop offset="1" stop-color="#8F9295"/>
</linearGradient>
<linearGradient id="paint72_linear_174_1792" x1="531.049" y1="529.669" x2="531.049" y2="538.386" gradientUnits="userSpaceOnUse">
<stop stop-color="#BFC2C3"/>
<stop offset="1" stop-color="#8F9295"/>
</linearGradient>
<linearGradient id="paint73_linear_174_1792" x1="531.049" y1="593.922" x2="531.049" y2="602.639" gradientUnits="userSpaceOnUse">
<stop stop-color="#BFC2C3"/>
<stop offset="1" stop-color="#8F9295"/>
</linearGradient>
<linearGradient id="paint74_linear_174_1792" x1="531.049" y1="662.796" x2="531.049" y2="671.518" gradientUnits="userSpaceOnUse">
<stop stop-color="#BFC2C3"/>
<stop offset="1" stop-color="#8F9295"/>
</linearGradient>
<linearGradient id="paint75_linear_174_1792" x1="537.268" y1="394.287" x2="554.745" y2="394.287" gradientUnits="userSpaceOnUse">
<stop stop-color="#BFC2C3"/>
<stop offset="1" stop-color="#8F9295"/>
</linearGradient>
<linearGradient id="paint76_linear_174_1792" x1="886.327" y1="637.405" x2="415.091" y2="637.405" gradientUnits="userSpaceOnUse">
<stop stop-color="#9BB3C3"/>
<stop offset="1" stop-color="#778695"/>
</linearGradient>
<linearGradient id="paint77_linear_174_1792" x1="925.588" y1="571.096" x2="798.243" y2="671.19" gradientUnits="userSpaceOnUse">
<stop stop-color="#9BB3C3"/>
<stop offset="1"/>
</linearGradient>
<linearGradient id="paint78_linear_174_1792" x1="927.32" y1="367.962" x2="588.037" y2="747.362" gradientUnits="userSpaceOnUse">
<stop stop-color="#D9D9D9"/>
<stop offset="1" stop-color="#9EB2C7"/>
</linearGradient>
<linearGradient id="paint79_linear_174_1792" x1="933.096" y1="657.798" x2="413.582" y2="657.798" gradientUnits="userSpaceOnUse">
<stop stop-color="#9BB3C3"/>
<stop offset="1" stop-color="#778695"/>
</linearGradient>
<linearGradient id="paint80_linear_174_1792" x1="984.211" y1="567.118" x2="794.977" y2="715.857" gradientUnits="userSpaceOnUse">
<stop stop-color="#9BB3C3"/>
<stop offset="1"/>
</linearGradient>
<linearGradient id="paint81_linear_174_1792" x1="973.56" y1="365.35" x2="598.041" y2="785.276" gradientUnits="userSpaceOnUse">
<stop stop-color="#D9D9D9"/>
<stop offset="1" stop-color="#9EB2C7"/>
</linearGradient>
<linearGradient id="paint82_linear_174_1792" x1="309.222" y1="172.56" x2="309.222" y2="208.668" gradientUnits="userSpaceOnUse">
<stop stop-color="#EBEEF0"/>
<stop offset="1" stop-color="#BABEC2"/>
</linearGradient>
<linearGradient id="paint83_linear_174_1792" x1="285.755" y1="181.868" x2="325.622" y2="182.413" gradientUnits="userSpaceOnUse">
<stop stop-color="#EBEEF0"/>
<stop offset="1"/>
</linearGradient>
<linearGradient id="paint84_linear_174_1792" x1="305.38" y1="178.635" x2="320.922" y2="230.991" gradientUnits="userSpaceOnUse">
<stop stop-color="white"/>
<stop offset="1" stop-color="#BABEC2"/>
</linearGradient>
<linearGradient id="paint85_linear_174_1792" x1="279.826" y1="175.615" x2="283.979" y2="175.615" gradientUnits="userSpaceOnUse">
<stop stop-color="#9BB3C3"/>
<stop offset="1" stop-color="#778695"/>
</linearGradient>
<linearGradient id="paint86_linear_174_1792" x1="281.951" y1="175.615" x2="284.919" y2="175.615" gradientUnits="userSpaceOnUse">
<stop stop-color="white"/>
<stop offset="1" stop-color="#B5CBE3"/>
</linearGradient>
<linearGradient id="paint87_linear_174_1792" x1="204.665" y1="190.239" x2="334.329" y2="190.239" gradientUnits="userSpaceOnUse">
<stop stop-color="#BFC2C3"/>
<stop offset="1" stop-color="#8F9295"/>
</linearGradient>
<linearGradient id="paint88_linear_174_1792" x1="259.791" y1="190.611" x2="260.55" y2="190.611" gradientUnits="userSpaceOnUse">
<stop stop-color="#BFC2C3"/>
<stop offset="1" stop-color="#8F9295"/>
</linearGradient>
<linearGradient id="paint89_linear_174_1792" x1="289.154" y1="190.775" x2="289.914" y2="190.775" gradientUnits="userSpaceOnUse">
<stop stop-color="#BFC2C3"/>
<stop offset="1" stop-color="#8F9295"/>
</linearGradient>
<linearGradient id="paint90_linear_174_1792" x1="230.432" y1="190.301" x2="231.192" y2="190.301" gradientUnits="userSpaceOnUse">
<stop stop-color="#BFC2C3"/>
<stop offset="1" stop-color="#8F9295"/>
</linearGradient>
<linearGradient id="paint91_linear_174_1792" x1="318.513" y1="190.795" x2="319.272" y2="190.795" gradientUnits="userSpaceOnUse">
<stop stop-color="#BFC2C3"/>
<stop offset="1" stop-color="#8F9295"/>
</linearGradient>
<linearGradient id="paint92_linear_174_1792" x1="269.496" y1="175.962" x2="269.496" y2="193.524" gradientUnits="userSpaceOnUse">
<stop stop-color="#BFC2C3"/>
<stop offset="1" stop-color="#8F9295"/>
</linearGradient>
<linearGradient id="paint93_linear_174_1792" x1="429.431" y1="467.461" x2="448.361" y2="467.895" gradientUnits="userSpaceOnUse">
<stop stop-color="white"/>
<stop offset="1" stop-color="#BABEC2"/>
</linearGradient>
<linearGradient id="paint94_linear_174_1792" x1="202.539" y1="190.014" x2="339.235" y2="393.37" gradientUnits="userSpaceOnUse">
<stop stop-color="#F1F4F6"/>
<stop offset="1" stop-color="#C0C4C8"/>
</linearGradient>
<linearGradient id="paint95_linear_174_1792" x1="230.951" y1="229.453" x2="325.638" y2="362.948" gradientUnits="userSpaceOnUse">
<stop stop-color="white"/>
<stop offset="1" stop-color="#BABEC2"/>
</linearGradient>
<linearGradient id="paint96_linear_174_1792" x1="379.071" y1="245.801" x2="385.498" y2="234.973" gradientUnits="userSpaceOnUse">
<stop stop-color="white"/>
<stop offset="1" stop-color="#BABEC2"/>
</linearGradient>
<linearGradient id="paint97_linear_174_1792" x1="160.124" y1="228.254" x2="263.809" y2="261.257" gradientUnits="userSpaceOnUse">
<stop stop-color="#EBEEF0"/>
<stop offset="1"/>
</linearGradient>
<linearGradient id="paint98_linear_174_1792" x1="209.998" y1="467.542" x2="419.971" y2="467.542" gradientUnits="userSpaceOnUse">
<stop stop-color="#EBEEF0"/>
<stop offset="1" stop-color="#BABEC2"/>
</linearGradient>
<linearGradient id="paint99_linear_174_1792" x1="204.408" y1="411.4" x2="334.249" y2="539.605" gradientUnits="userSpaceOnUse">
<stop stop-color="white"/>
<stop offset="1" stop-color="#BABEC2"/>
</linearGradient>
<linearGradient id="paint100_linear_174_1792" x1="119.453" y1="397.526" x2="256.331" y2="397.526" gradientUnits="userSpaceOnUse">
<stop stop-color="#EBEEF0"/>
<stop offset="1"/>
</linearGradient>
<linearGradient id="paint101_linear_174_1792" x1="90.8656" y1="370.012" x2="447.871" y2="370.012" gradientUnits="userSpaceOnUse">
<stop stop-color="#F0F3F5"/>
<stop offset="1" stop-color="#BFC3C7"/>
</linearGradient>
<linearGradient id="paint102_linear_174_1792" x1="90.8765" y1="472.863" x2="447.871" y2="472.863" gradientUnits="userSpaceOnUse">
<stop stop-color="#F0F3F5"/>
<stop offset="1" stop-color="#BFC3C7"/>
</linearGradient>
<linearGradient id="paint103_linear_174_1792" x1="90.8928" y1="570.571" x2="447.87" y2="570.571" gradientUnits="userSpaceOnUse">
<stop stop-color="#F0F3F5"/>
<stop offset="1" stop-color="#BFC3C7"/>
</linearGradient>
<linearGradient id="paint104_linear_174_1792" x1="396.609" y1="233.284" x2="392.463" y2="240.191" gradientUnits="userSpaceOnUse">
<stop stop-color="#9BB3C3"/>
<stop offset="1" stop-color="#778695"/>
</linearGradient>
<linearGradient id="paint105_linear_174_1792" x1="397.117" y1="232.626" x2="380.399" y2="259.707" gradientUnits="userSpaceOnUse">
<stop stop-color="white"/>
<stop offset="1" stop-color="#B5CBE3"/>
</linearGradient>
<linearGradient id="paint106_linear_174_1792" x1="357.083" y1="215.881" x2="358.71" y2="217.229" gradientUnits="userSpaceOnUse">
<stop stop-color="#E8EBED"/>
<stop offset="1" stop-color="#96999D"/>
</linearGradient>
<linearGradient id="paint107_linear_174_1792" x1="407.697" y1="247.081" x2="409.363" y2="248.613" gradientUnits="userSpaceOnUse">
<stop stop-color="#E8EBED"/>
<stop offset="1" stop-color="#96999D"/>
</linearGradient>
<linearGradient id="paint108_linear_174_1792" x1="466.567" y1="464.258" x2="453.292" y2="464.258" gradientUnits="userSpaceOnUse">
<stop stop-color="#9BB3C3"/>
<stop offset="1" stop-color="#778695"/>
</linearGradient>
<linearGradient id="paint109_linear_174_1792" x1="459.544" y1="464.258" x2="449.663" y2="464.258" gradientUnits="userSpaceOnUse">
<stop stop-color="white"/>
<stop offset="1" stop-color="#B5CBE3"/>
</linearGradient>
<linearGradient id="paint110_linear_174_1792" x1="458.205" y1="356.919" x2="458.205" y2="358.898" gradientUnits="userSpaceOnUse">
<stop stop-color="#E8EBED"/>
<stop offset="1" stop-color="#96999D"/>
</linearGradient>
<linearGradient id="paint111_linear_174_1792" x1="458.281" y1="436.734" x2="458.281" y2="438.968" gradientUnits="userSpaceOnUse">
<stop stop-color="#E8EBED"/>
<stop offset="1" stop-color="#96999D"/>
</linearGradient>
<linearGradient id="paint112_linear_174_1792" x1="458.276" y1="517.412" x2="458.276" y2="519.911" gradientUnits="userSpaceOnUse">
<stop stop-color="#E8EBED"/>
<stop offset="1" stop-color="#96999D"/>
</linearGradient>
<linearGradient id="paint113_linear_174_1792" x1="458.374" y1="598.084" x2="458.374" y2="599.854" gradientUnits="userSpaceOnUse">
<stop stop-color="#E8EBED"/>
<stop offset="1" stop-color="#96999D"/>
</linearGradient>
<linearGradient id="paint114_linear_174_1792" x1="458.664" y1="275.961" x2="458.664" y2="277.884" gradientUnits="userSpaceOnUse">
<stop stop-color="#E8EBED"/>
<stop offset="1" stop-color="#96999D"/>
</linearGradient>
<linearGradient id="paint115_linear_174_1792" x1="157.321" y1="649.494" x2="451.886" y2="664.152" gradientUnits="userSpaceOnUse">
<stop stop-color="#EBEEF0"/>
<stop offset="1" stop-color="#BABEC2"/>
</linearGradient>
<linearGradient id="paint116_linear_174_1792" x1="135.444" y1="631.086" x2="252.713" y2="671.152" gradientUnits="userSpaceOnUse">
<stop stop-color="#EBEEF0"/>
<stop offset="1"/>
</linearGradient>
<linearGradient id="paint117_linear_174_1792" x1="265.917" y1="632.024" x2="274.092" y2="745.204" gradientUnits="userSpaceOnUse">
<stop stop-color="white"/>
<stop offset="1" stop-color="#BABEC2"/>
</linearGradient>
<linearGradient id="paint118_linear_174_1792" x1="249.625" y1="698.313" x2="277.123" y2="587.268" gradientUnits="userSpaceOnUse">
<stop stop-color="#E8EBED"/>
<stop offset="1" stop-color="#96999D"/>
</linearGradient>
<linearGradient id="paint119_linear_174_1792" x1="661.418" y1="534.147" x2="728.354" y2="534.147" gradientUnits="userSpaceOnUse">
<stop stop-color="#EBEEF0"/>
<stop offset="1" stop-color="#BABEC2"/>
</linearGradient>
<linearGradient id="paint120_linear_174_1792" x1="647.372" y1="534.142" x2="701.782" y2="534.142" gradientUnits="userSpaceOnUse">
<stop stop-color="#EBEEF0"/>
<stop offset="1"/>
</linearGradient>
<linearGradient id="paint121_linear_174_1792" x1="713.489" y1="534.107" x2="747.104" y2="534.107" gradientUnits="userSpaceOnUse">
<stop stop-color="white"/>
<stop offset="1" stop-color="#BABEC2"/>
</linearGradient>
<linearGradient id="paint122_linear_174_1792" x1="638.35" y1="657.864" x2="656.439" y2="657.735" gradientUnits="userSpaceOnUse">
<stop stop-color="#EBEEF0"/>
<stop offset="1" stop-color="#BABEC2"/>
</linearGradient>
<linearGradient id="paint123_linear_174_1792" x1="639.782" y1="660.593" x2="652.195" y2="664.158" gradientUnits="userSpaceOnUse">
<stop stop-color="#EBEEF0"/>
<stop offset="1"/>
</linearGradient>
<linearGradient id="paint124_linear_174_1792" x1="635.453" y1="659.476" x2="671.09" y2="654.644" gradientUnits="userSpaceOnUse">
<stop stop-color="white"/>
<stop offset="1" stop-color="#BABEC2"/>
</linearGradient>
<linearGradient id="paint125_linear_174_1792" x1="736.649" y1="676.843" x2="745.094" y2="655.119" gradientUnits="userSpaceOnUse">
<stop stop-color="#EBEEF0"/>
<stop offset="1" stop-color="#BABEC2"/>
</linearGradient>
<linearGradient id="paint126_linear_174_1792" x1="732.955" y1="667.999" x2="747.776" y2="661.936" gradientUnits="userSpaceOnUse">
<stop stop-color="#EBEEF0"/>
<stop offset="1"/>
</linearGradient>
<linearGradient id="paint127_linear_174_1792" x1="736.649" y1="676.843" x2="745.094" y2="655.119" gradientUnits="userSpaceOnUse">
<stop stop-color="white"/>
<stop offset="1" stop-color="#BABEC2"/>
</linearGradient>
<linearGradient id="paint128_linear_174_1792" x1="664.456" y1="636.676" x2="723.107" y2="636.676" gradientUnits="userSpaceOnUse">
<stop stop-color="#B0CCDE"/>
<stop offset="1" stop-color="#778695"/>
</linearGradient>
<linearGradient id="paint129_linear_174_1792" x1="674.342" y1="605.552" x2="682.051" y2="637.278" gradientUnits="userSpaceOnUse">
<stop stop-color="#9BB3C3"/>
<stop offset="1"/>
</linearGradient>
<linearGradient id="paint130_linear_174_1792" x1="675.987" y1="636.676" x2="727.086" y2="636.676" gradientUnits="userSpaceOnUse">
<stop stop-color="white"/>
<stop offset="1" stop-color="#B5CBE3"/>
</linearGradient>
<linearGradient id="paint131_linear_174_1792" x1="664.456" y1="432.164" x2="723.107" y2="432.164" gradientUnits="userSpaceOnUse">
<stop stop-color="#B0CCDE"/>
<stop offset="1" stop-color="#778695"/>
</linearGradient>
<linearGradient id="paint132_linear_174_1792" x1="686.59" y1="435.424" x2="715.381" y2="477" gradientUnits="userSpaceOnUse">
<stop stop-color="white"/>
<stop offset="1" stop-color="#B5CBE3"/>
</linearGradient>
<linearGradient id="paint133_linear_174_1792" x1="651.466" y1="406.615" x2="704.03" y2="461.158" gradientUnits="userSpaceOnUse">
<stop stop-color="#9BB3C3"/>
<stop offset="1"/>
</linearGradient>
<linearGradient id="paint134_linear_174_1792" x1="527.841" y1="534.147" x2="594.777" y2="534.147" gradientUnits="userSpaceOnUse">
<stop stop-color="#EBEEF0"/>
<stop offset="1" stop-color="#BABEC2"/>
</linearGradient>
<linearGradient id="paint135_linear_174_1792" x1="513.796" y1="534.142" x2="568.206" y2="534.142" gradientUnits="userSpaceOnUse">
<stop stop-color="#EBEEF0"/>
<stop offset="1"/>
</linearGradient>
<linearGradient id="paint136_linear_174_1792" x1="579.912" y1="534.107" x2="613.528" y2="534.107" gradientUnits="userSpaceOnUse">
<stop stop-color="white"/>
<stop offset="1" stop-color="#BABEC2"/>
</linearGradient>
<linearGradient id="paint137_linear_174_1792" x1="504.773" y1="657.864" x2="522.862" y2="657.735" gradientUnits="userSpaceOnUse">
<stop stop-color="#EBEEF0"/>
<stop offset="1" stop-color="#BABEC2"/>
</linearGradient>
<linearGradient id="paint138_linear_174_1792" x1="506.205" y1="660.593" x2="518.618" y2="664.158" gradientUnits="userSpaceOnUse">
<stop stop-color="#EBEEF0"/>
<stop offset="1"/>
</linearGradient>
<linearGradient id="paint139_linear_174_1792" x1="501.876" y1="659.476" x2="537.513" y2="654.644" gradientUnits="userSpaceOnUse">
<stop stop-color="white"/>
<stop offset="1" stop-color="#BABEC2"/>
</linearGradient>
<linearGradient id="paint140_linear_174_1792" x1="603.073" y1="676.843" x2="611.517" y2="655.119" gradientUnits="userSpaceOnUse">
<stop stop-color="#EBEEF0"/>
<stop offset="1" stop-color="#BABEC2"/>
</linearGradient>
<linearGradient id="paint141_linear_174_1792" x1="599.379" y1="667.999" x2="614.2" y2="661.936" gradientUnits="userSpaceOnUse">
<stop stop-color="#EBEEF0"/>
<stop offset="1"/>
</linearGradient>
<linearGradient id="paint142_linear_174_1792" x1="603.073" y1="676.843" x2="611.517" y2="655.119" gradientUnits="userSpaceOnUse">
<stop stop-color="white"/>
<stop offset="1" stop-color="#BABEC2"/>
</linearGradient>
<linearGradient id="paint143_linear_174_1792" x1="530.879" y1="636.676" x2="589.53" y2="636.676" gradientUnits="userSpaceOnUse">
<stop stop-color="#B0CCDE"/>
<stop offset="1" stop-color="#778695"/>
</linearGradient>
<linearGradient id="paint144_linear_174_1792" x1="540.766" y1="605.552" x2="548.47" y2="637.277" gradientUnits="userSpaceOnUse">
<stop stop-color="#9BB3C3"/>
<stop offset="1"/>
</linearGradient>
<linearGradient id="paint145_linear_174_1792" x1="542.411" y1="636.676" x2="593.509" y2="636.676" gradientUnits="userSpaceOnUse">
<stop stop-color="white"/>
<stop offset="1" stop-color="#B5CBE3"/>
</linearGradient>
<linearGradient id="paint146_linear_174_1792" x1="530.879" y1="432.164" x2="589.53" y2="432.164" gradientUnits="userSpaceOnUse">
<stop stop-color="#B0CCDE"/>
<stop offset="1" stop-color="#778695"/>
</linearGradient>
<linearGradient id="paint147_linear_174_1792" x1="553.013" y1="435.424" x2="581.804" y2="477" gradientUnits="userSpaceOnUse">
<stop stop-color="white"/>
<stop offset="1" stop-color="#B5CBE3"/>
</linearGradient>
<linearGradient id="paint148_linear_174_1792" x1="517.889" y1="406.615" x2="570.453" y2="461.158" gradientUnits="userSpaceOnUse">
<stop stop-color="#9BB3C3"/>
<stop offset="1"/>
</linearGradient>
<linearGradient id="paint149_linear_174_1792" x1="394.264" y1="534.147" x2="461.2" y2="534.147" gradientUnits="userSpaceOnUse">
<stop stop-color="#EBEEF0"/>
<stop offset="1" stop-color="#BABEC2"/>
</linearGradient>
<linearGradient id="paint150_linear_174_1792" x1="380.219" y1="534.142" x2="434.629" y2="534.142" gradientUnits="userSpaceOnUse">
<stop stop-color="#EBEEF0"/>
<stop offset="1"/>
</linearGradient>
<linearGradient id="paint151_linear_174_1792" x1="446.335" y1="534.107" x2="479.95" y2="534.107" gradientUnits="userSpaceOnUse">
<stop stop-color="white"/>
<stop offset="1" stop-color="#BABEC2"/>
</linearGradient>
<linearGradient id="paint152_linear_174_1792" x1="371.196" y1="657.864" x2="389.285" y2="657.735" gradientUnits="userSpaceOnUse">
<stop stop-color="#EBEEF0"/>
<stop offset="1" stop-color="#BABEC2"/>
</linearGradient>
<linearGradient id="paint153_linear_174_1792" x1="372.628" y1="660.593" x2="385.041" y2="664.158" gradientUnits="userSpaceOnUse">
<stop stop-color="#EBEEF0"/>
<stop offset="1"/>
</linearGradient>
<linearGradient id="paint154_linear_174_1792" x1="368.299" y1="659.476" x2="403.936" y2="654.644" gradientUnits="userSpaceOnUse">
<stop stop-color="white"/>
<stop offset="1" stop-color="#BABEC2"/>
</linearGradient>
<linearGradient id="paint155_linear_174_1792" x1="469.496" y1="676.843" x2="477.94" y2="655.119" gradientUnits="userSpaceOnUse">
<stop stop-color="#EBEEF0"/>
<stop offset="1" stop-color="#BABEC2"/>
</linearGradient>
<linearGradient id="paint156_linear_174_1792" x1="465.802" y1="667.999" x2="480.622" y2="661.936" gradientUnits="userSpaceOnUse">
<stop stop-color="#EBEEF0"/>
<stop offset="1"/>
</linearGradient>
<linearGradient id="paint157_linear_174_1792" x1="469.496" y1="676.843" x2="477.94" y2="655.119" gradientUnits="userSpaceOnUse">
<stop stop-color="white"/>
<stop offset="1" stop-color="#BABEC2"/>
</linearGradient>
<linearGradient id="paint158_linear_174_1792" x1="397.302" y1="636.676" x2="455.953" y2="636.676" gradientUnits="userSpaceOnUse">
<stop stop-color="#B0CCDE"/>
<stop offset="1" stop-color="#778695"/>
</linearGradient>
<linearGradient id="paint159_linear_174_1792" x1="407.189" y1="605.552" x2="414.893" y2="637.277" gradientUnits="userSpaceOnUse">
<stop stop-color="#9BB3C3"/>
<stop offset="1"/>
</linearGradient>
<linearGradient id="paint160_linear_174_1792" x1="408.834" y1="636.676" x2="459.932" y2="636.676" gradientUnits="userSpaceOnUse">
<stop stop-color="white"/>
<stop offset="1" stop-color="#B5CBE3"/>
</linearGradient>
<linearGradient id="paint161_linear_174_1792" x1="397.303" y1="432.164" x2="455.954" y2="432.164" gradientUnits="userSpaceOnUse">
<stop stop-color="#B0CCDE"/>
<stop offset="1" stop-color="#778695"/>
</linearGradient>
<linearGradient id="paint162_linear_174_1792" x1="419.436" y1="435.424" x2="448.227" y2="477" gradientUnits="userSpaceOnUse">
<stop stop-color="white"/>
<stop offset="1" stop-color="#B5CBE3"/>
</linearGradient>
<linearGradient id="paint163_linear_174_1792" x1="384.312" y1="406.615" x2="436.876" y2="461.158" gradientUnits="userSpaceOnUse">
<stop stop-color="#9BB3C3"/>
<stop offset="1"/>
</linearGradient>
<linearGradient id="paint164_linear_174_1792" x1="343.614" y1="605.358" x2="321.65" y2="605.358" gradientUnits="userSpaceOnUse">
<stop stop-color="#E6E9EB"/>
<stop offset="1" stop-color="#94979B"/>
</linearGradient>
<linearGradient id="paint165_linear_174_1792" x1="176.547" y1="543.701" x2="206.428" y2="704.941" gradientUnits="userSpaceOnUse">
<stop stop-color="#EBEEF0"/>
<stop offset="1"/>
</linearGradient>
<linearGradient id="paint166_linear_174_1792" x1="323.158" y1="605.358" x2="373.212" y2="605.358" gradientUnits="userSpaceOnUse">
<stop stop-color="#C3C6C7"/>
<stop offset="1" stop-color="#939699"/>
</linearGradient>
<linearGradient id="paint167_linear_174_1792" x1="320.933" y1="605.358" x2="335.995" y2="605.358" gradientUnits="userSpaceOnUse">
<stop stop-color="#EBEEF0"/>
<stop offset="1"/>
</linearGradient>
<linearGradient id="paint168_linear_174_1792" x1="323.158" y1="605.425" x2="373.212" y2="605.425" gradientUnits="userSpaceOnUse">
<stop stop-color="white"/>
<stop offset="1" stop-color="#BABEC2"/>
</linearGradient>
<linearGradient id="paint169_linear_174_1792" x1="345.608" y1="594.049" x2="280.466" y2="598.549" gradientUnits="userSpaceOnUse">
<stop stop-color="#E6E9EB"/>
<stop offset="1" stop-color="#94979B"/>
</linearGradient>
<linearGradient id="paint170_linear_174_1792" x1="139.144" y1="541.221" x2="169.584" y2="705.486" gradientUnits="userSpaceOnUse">
<stop stop-color="#EBEEF0"/>
<stop offset="1"/>
</linearGradient>
<linearGradient id="paint171_linear_174_1792" x1="288.498" y1="604.036" x2="339.493" y2="604.036" gradientUnits="userSpaceOnUse">
<stop stop-color="#C3C6C7"/>
<stop offset="1" stop-color="#939699"/>
</linearGradient>
<linearGradient id="paint172_linear_174_1792" x1="252.588" y1="604.036" x2="307.074" y2="604.036" gradientUnits="userSpaceOnUse">
<stop stop-color="#EBEEF0"/>
<stop offset="1"/>
</linearGradient>
<linearGradient id="paint173_linear_174_1792" x1="288.498" y1="604.103" x2="339.493" y2="604.103" gradientUnits="userSpaceOnUse">
<stop stop-color="white"/>
<stop offset="1" stop-color="#BABEC2"/>
</linearGradient>
<linearGradient id="paint174_linear_174_1792" x1="126.214" y1="535.387" x2="160.802" y2="722.031" gradientUnits="userSpaceOnUse">
<stop stop-color="#EBEEF0"/>
<stop offset="1" stop-color="#BABEC2"/>
</linearGradient>
<linearGradient id="paint175_linear_174_1792" x1="98.8336" y1="537.861" x2="130.035" y2="706.231" gradientUnits="userSpaceOnUse">
<stop stop-color="#EBEEF0"/>
<stop offset="1"/>
</linearGradient>
<linearGradient id="paint176_linear_174_1792" x1="251.926" y1="602.247" x2="304.194" y2="602.247" gradientUnits="userSpaceOnUse">
<stop stop-color="#C3C6C7"/>
<stop offset="1" stop-color="#939699"/>
</linearGradient>
<linearGradient id="paint177_linear_174_1792" x1="258.424" y1="602.247" x2="268.234" y2="602.247" gradientUnits="userSpaceOnUse">
<stop stop-color="#EBEEF0"/>
<stop offset="1"/>
</linearGradient>
<linearGradient id="paint178_linear_174_1792" x1="251.926" y1="602.313" x2="304.194" y2="602.313" gradientUnits="userSpaceOnUse">
<stop stop-color="white"/>
<stop offset="1" stop-color="#BABEC2"/>
</linearGradient>
<linearGradient id="paint179_linear_174_1792" x1="241.543" y1="615.793" x2="221.038" y2="616.004" gradientUnits="userSpaceOnUse">
<stop stop-color="white"/>
<stop offset="1" stop-color="#BABEC2"/>
</linearGradient>
<linearGradient id="paint180_linear_174_1792" x1="209.627" y1="625.296" x2="216.764" y2="625.296" gradientUnits="userSpaceOnUse">
<stop stop-color="#ACC8D9"/>
<stop offset="1" stop-color="#778695"/>
</linearGradient>
<linearGradient id="paint181_linear_174_1792" x1="209.375" y1="631.458" x2="214.152" y2="631.458" gradientUnits="userSpaceOnUse">
<stop stop-color="#9BB3C3"/>
<stop offset="1"/>
</linearGradient>
<linearGradient id="paint182_linear_174_1792" x1="209.681" y1="625.296" x2="227.864" y2="625.296" gradientUnits="userSpaceOnUse">
<stop stop-color="white"/>
<stop offset="1" stop-color="#B5CBE3"/>
</linearGradient>
<linearGradient id="paint183_linear_174_1792" x1="195.079" y1="567.725" x2="246.923" y2="568.738" gradientUnits="userSpaceOnUse">
<stop stop-color="#EBEEF0"/>
<stop offset="1" stop-color="#BABEC2"/>
</linearGradient>
<linearGradient id="paint184_linear_174_1792" x1="202.118" y1="567.674" x2="241.677" y2="568.441" gradientUnits="userSpaceOnUse">
<stop stop-color="white"/>
<stop offset="1" stop-color="#BABEC2"/>
</linearGradient>
<linearGradient id="paint185_linear_174_1792" x1="191.516" y1="564.124" x2="227.216" y2="580.611" gradientUnits="userSpaceOnUse">
<stop stop-color="#EBEEF0"/>
<stop offset="1"/>
</linearGradient>
<linearGradient id="paint186_linear_174_1792" x1="209.162" y1="568.005" x2="215.972" y2="568.005" gradientUnits="userSpaceOnUse">
<stop stop-color="#F1F4F6"/>
<stop offset="1" stop-color="#9FA2A6"/>
</linearGradient>
<linearGradient id="paint187_linear_174_1792" x1="96.8338" y1="615.793" x2="76.3238" y2="616.004" gradientUnits="userSpaceOnUse">
<stop stop-color="white"/>
<stop offset="1" stop-color="#BABEC2"/>
</linearGradient>
<linearGradient id="paint188_linear_174_1792" x1="64.9176" y1="625.296" x2="72.0495" y2="625.296" gradientUnits="userSpaceOnUse">
<stop stop-color="#ACC8D9"/>
<stop offset="1" stop-color="#778695"/>
</linearGradient>
<linearGradient id="paint189_linear_174_1792" x1="64.6608" y1="631.458" x2="69.4372" y2="631.458" gradientUnits="userSpaceOnUse">
<stop stop-color="#9BB3C3"/>
<stop offset="1"/>
</linearGradient>
<linearGradient id="paint190_linear_174_1792" x1="64.9723" y1="625.296" x2="83.1491" y2="625.296" gradientUnits="userSpaceOnUse">
<stop stop-color="white"/>
<stop offset="1" stop-color="#B5CBE3"/>
</linearGradient>
<linearGradient id="paint191_linear_174_1792" x1="50.3697" y1="567.725" x2="102.214" y2="568.738" gradientUnits="userSpaceOnUse">
<stop stop-color="#EBEEF0"/>
<stop offset="1" stop-color="#BABEC2"/>
</linearGradient>
<linearGradient id="paint192_linear_174_1792" x1="57.4084" y1="567.674" x2="96.9681" y2="568.441" gradientUnits="userSpaceOnUse">
<stop stop-color="white"/>
<stop offset="1" stop-color="#BABEC2"/>
</linearGradient>
<linearGradient id="paint193_linear_174_1792" x1="46.8065" y1="564.124" x2="82.5017" y2="580.611" gradientUnits="userSpaceOnUse">
<stop stop-color="#EBEEF0"/>
<stop offset="1"/>
</linearGradient>
<linearGradient id="paint194_linear_174_1792" x1="64.4472" y1="568.005" x2="71.2621" y2="568.005" gradientUnits="userSpaceOnUse">
<stop stop-color="#F1F4F6"/>
<stop offset="1" stop-color="#9FA2A6"/>
</linearGradient>
</defs>
</svg>
